<svg xmlns="http://www.w3.org/2000/svg" width="111.008" height="23.749" viewBox="0 0 111.008 23.749"><g fill-rule="evenodd" clip-rule="evenodd"><path fill="#fff" d="M6.573 12.594l-.088.015.015.088.087-.015.089-.015.087-.015.088-.015-.014-.088.086-.015-.014-.088-.015-.089-.087.015-.089.015-.015-.088-.087.015.015.088-.088.015.015.089.015.088zM31.259 15.019l.016.088-.088.016-.016-.088zM18.417 17.333l-.016-.088-.088.014-.088.015.014.087.015.089.089-.015-.015-.088.089-.014zM18.062 17.392l.089-.015-.014-.088-.089.016.014.087zM18.062 17.392l-.087.015.015.089.088-.015-.016-.089z"/><path fill="#4D3A2C" d="M97.281 8.809l.019.178.088-.009-.009-.089-.01-.089-.088.009z"/></g><g fill-rule="evenodd" clip-rule="evenodd"><path fill="#4D3A2C" d="M97.388 8.977l-.009-.089-.01-.089-.088.01.019.178.088-.01z"/><path fill="#A8D8D0" d="M8.63 12.977l-.015-.087-.059-.353-.088.015-.015-.087-.09.014-.012-.088-.089.014-.087.015-.015-.087-.087.014-.014-.088-.089.015-.014-.088-.089.015-.015-.091-.088.014-.015-.088-.086.014-.016-.087-.088.015-.013-.088-.089.015-.015-.088-.087.015-.015-.088-.09.013-.016-.089-.086.015-.016-.087-.089.014-.014-.088-.088.015-.014-.088-.089.014-.013-.088-.088.015-.015-.088-.088.015-.015-.088-.086.014-.016-.088-.082.014-.008-.008-.012-.08-.061.01-.036-.034-.008-.049-.037.005-.063-.065-.002-.014-.015-.088-.069.012-.024-.025-.007-.06-.016-.088-.087.015-.015-.089-.054.008-.045-.054-.005-.028-.017.003c-.226-.252-.557-.55-.741-.735l-.008-.048-.015-.089-.089.015-.014-.087-.089.013-.014-.088-.015-.088-.089.014-.014-.087-.014-.089-.087.015-.015-.088-.088.014-.015-.088-.015-.088-.089.015-.013-.087-.016-.089-.089.014-.014-.088-.015-.087-.029-.177-.03-.178-.014-.088-.015-.087-.086.015-.029-.178-.089.016-.015-.089-.015-.088-.088.015-.015-.088-.088.014-.015-.089-.089.016-.013-.089-.09.015-.174.029-.177.03-.088.014-.088.015.014.089-.088.014.014.088-.087.014.014.089.015.088.089-.015.014.088.014.089.015.088.014.088.016.088.015.088-.089.015.015.088.014.088-.089.015.015.088-.088.015.015.088.014.089-.087.014.014.088-.088.015.014.088-.088.014.014.089-.089.015.016.087-.088.015.014.088-.087.015.014.088.014.088-.088.015.015.088-.089.014.015.088-.087.015.015.088.016.089-.089.015.014.087.015.089-.086.014.015.088.014.088-.089.015.016.088.014.088.015.088.015.088-.177.03.015.088-.088.014-.089.015.016.089.014.088-.087.015.014.089-.09.014.016.088-.087.014.014.088.016.089-.09.015.015.088-.088.015.015.087-.088.015.015.088.015.088.015.088.016.088.015.089-.088.014-.015-.088-.088.015.015.088.014.088-.087.015.014.088-.088.015.015.087.03.176-.09.015.016.089.014.087-.086.016.015.087.014.089.015.087-.099.017.015.088.014.089.016.088-.087.015.014.088.015.088-.089.014.015.088.015.089-.089.015.016.087.014.088.016.089-.09.014.016.088.013.088-.085.014.014.089.015.088.016.088-.09.015.014.088-.087.014.015.089.016.088-.089.015.015.088-.089.015.016.088.013.088-.088.015.015.088-.09.014.016.089.015.088-.088.015.015.088-.087.015.015.088.014.088-.088.015.009.089-.088.014.015.088-.089.014.03.177.029.176.088-.015.089-.014.015.087.088-.015.089-.014.014.088.087-.014.089-.016.013.088.089-.015-.015-.087.089-.015.086-.015-.014-.089.089-.015-.015-.087.087-.015.088-.015-.014-.087.087-.015.089-.015-.015-.089.087-.015.089-.014-.015-.089.089-.014-.015-.088.088-.015.177-.029.176-.03.09-.011.089-.015-.015-.087.087-.015.089-.014.087-.015-.014-.088.09-.015.175-.03.087-.014.088-.015-.014-.089.087-.014.089-.015.087-.015-.016-.087.091-.016.087-.015.088-.014.089-.015-.015-.088.175-.029.088-.015.088-.015.09-.015-.015-.088.087-.015.181-.027.088-.015.089-.016.089-.014-.016-.089.087-.015.089-.015.087-.015-.014-.087.088-.015.087-.015-.015-.088.088-.015.089-.015-.015-.089-.086.018-.016-.088.089-.015.088-.015-.016-.087-.007-.054.168-.074.002.009.087-.015.089-.015.088-.014.087-.015-.014-.087.083-.041.019.115.177-.03-.015-.088.088-.015.016.088.086-.015-.014-.088.088-.014.088-.015.089-.015.089-.015.086-.014.087-.015.09-.015.086-.015-.014-.088.089-.015.087-.014.09-.015-.016-.088.088-.015.094-.013.087-.014-.015-.088.089-.015.176-.03.088-.014.176-.03.089-.014.089-.015.015.088.089-.014.086-.015.177-.029.177-.029.087-.014.088-.015-.013-.089.087-.015-.014-.089.088-.014-.016-.088z"/></g><path fill-rule="evenodd" clip-rule="evenodd" fill="#7D614D" d="M18.857 17.26l-.015-.088-.015-.088-.013-.087-.016-.089-.015-.088-.089.014-.015-.087-.016-.089-.086.015-.016-.088-.088.015-.014-.088-.088.015-.087.015-.088.015-.015-.088-.088.015-.088.014-.089.015-.088.015-.089.014-.014-.088-.089.014-.088.015-.013-.088-.088.014-.088.015-.014-.088-.089.015-.088.014-.015-.088-.09.014-.087.016-.015-.089-.088.015-.088.015-.015-.088-.088.015-.088.015-.016-.089-.088.015-.086.014-.09.016-.015-.088-.088.014-.087.015-.015-.088-.087.015-.089.014-.087.015-.014-.089-.089.015-.088.014-.089.016-.014-.088-.089.014-.088.015-.014-.089-.087.014-.089.016-.015-.088-.088.015-.088.015-.016-.088-.087.015-.015-.088-.087.014-.088.015-.016-.088-.087.014-.016-.087-.087.015-.088.015-.014-.088-.088.015-.088.014-.016-.088-.087.015-.088.014-.016-.087-.089.014-.014-.089-.088.015-.016-.088-.088.014-.015-.087-.088.014-.087.015-.015-.088-.088.015-.015-.088-.087.014-.015-.088-.087.014-.088.015-.016-.088-.088.015-.015-.088-.088.015-.015-.088-.086.014-.015-.088-.015-.088-.089.015-.015-.089-.087.015-.015-.088-.014-.087-.014-.088-.09.015-.088.015-.016-.089-.087.015.015.088-.088.015.015.089-.089.014.016.088-.087.014.014.089.014.088-.087.015.015.088.015.088-.088.015.014.088.015.087.014.088.088-.015.015.088.014.089.09-.016.013.088.045-.008.059.081v.001l.014.088.046-.007.175.242.015.088.043-.008.059.081.016.089-.088.014.013.087.03.177.088-.014.015.088.015.088.058.353.03.177.016.088.013.088.016.088.015.088-.088.015.014.088.015.087.03.177.087-.015.015.089-.087.014.015.088.014.088.015.088.087-.014.012.088.015.088.016.088-.088.014.014.088.015.088.014.088.029.176.059.352.015.089.029.176.029.177.029.177-.088.015.014.089.015.087.014.088.03.176.028.177.03.176.015.088.088-.014.015.088.014.088-.088.015.015.088.015.088.089-.015.028.177.06.353.013.088.03.176.03.176.029.177-.089.014.015.089.015.088.013.088.016.087-.088.015.015.088.014.088.03.176.03.177.014.088.015.088.014.088.088-.015.014.088.088-.015.016.089.087-.016.089-.014.088-.015.177-.029-.016-.088.087-.015-.014-.088.088-.014.088-.015-.015-.088-.013-.088.087-.015-.015-.088.089-.015-.015-.087-.016-.089.087-.014-.016-.088.09-.015-.014-.088-.015-.088.087-.014-.015-.088.091-.015-.016-.088.087-.015-.015-.087.088-.014-.014-.089.089-.014-.015-.089.087-.015-.014-.087.09-.015-.015-.088.086-.015-.014-.087.089-.015-.015-.087-.015-.089.087-.015-.013-.088.087-.014-.014-.088-.016-.088.089-.015-.015-.088.088-.014-.015-.09.088-.013-.013-.088.085-.014-.014-.089.087-.015-.014-.088.089-.014.088-.015-.015-.087.09-.015.087-.014-.015-.089.089-.015.086-.015-.014-.087.089-.015-.015-.087-.015-.089.088-.015-.014-.088.087-.014-.015-.088-.014-.088.088-.015-.014-.087.089-.015-.016-.088.088-.014-.015-.088.088-.014-.014-.088.087-.015-.015-.088.088-.015-.013-.087.085-.015-.014-.089.09-.015.087-.015-.015-.088.088-.015.087-.015-.013-.088.087-.015-.015-.088.088-.015-.016-.087.09-.015-.015-.088.088-.014-.016-.089.09-.015.087-.014-.015-.088.088-.014-.015-.089.089-.015-.029-.176-.088.014-.01-.052.078-.076.004.025.09-.015.014.088.086-.015-.014-.088-.016-.088-.014-.087.001-.001.176-.03.088-.014-.016-.089.09-.014.087-.015.013.089.089-.015-.014-.088-.015-.089.089-.014.086-.014-.013-.089.098-.025z"/><path fill-rule="evenodd" clip-rule="evenodd" fill="#CBCB30" d="M31.658 15.225l-.015-.089.09-.014-.059-.354-.089.015-.014-.088-.014-.088-.089.015-.015-.089-.088.016-.015-.089-.089.015-.087.015-.177.029-.014-.087-.088.014.015.088-.089.015-.086.015-.177.029-.088.014-.09.016.016.088-.088.014-.089.015-.087.015.014.088-.087.015.014.088-.088.015-.088.014.014.089-.175.029-.087.015-.09.015.016.088-.088.015-.089.015-.087.015-.089.016.014.088-.087.015-.176.029-.089.014-.087.015-.089.014.016.089-.089.015-.088.014-.087.015.014.087-.176.029-.089.015-.176.029-.087.015.013.088-.086.015-.089.014-.087.015-.177.03-.088.014-.088.015-.088.015.015.088-.088.015-.088.015-.014-.088-.089.015.014.089-.086.014-.09.015-.087.015-.088.015-.016-.089-.353.06-.353.058-.177.029-.014-.088-.087.014.015.088-.089.015-.087.014-.089.015-.015-.088-.176.029-.352.058-.088.015-.089.014-.015-.087-.089.014.015.088-.088.015-.014-.087-.089.014.017.088-.088.015-.09.014-.015-.088-.089.015-.088.014.017.088-.089.015-.015-.088-.088.015.015.087-.088.015-.09.015-.086.014.015.089-.089.014-.086.015.013.088-.088.015-.088.015.014.088.029.176-.087.015.028.176.016.088.088-.014.014.088.089-.015.015.088.088-.015.014.088.087-.014.016.089.015.088.089-.015.087-.014.015.087.088-.014.015.087.088-.013.013.087.089-.015.014.088.089-.015.013.088.088-.014.016.088.088-.016.016.089.087-.014.015.087.088-.015.016.088.087-.014.014.088.013.088.089-.015.015.089.088-.015.014.087.016.089.089-.015.086-.014.016.088.016.088.086-.014.015.087.089-.014.015.087.087-.014.016.088.015.088.088-.014.015.087.088-.014.014.089.015.088.089-.016.016.088.013.088.088-.016.015.089.014.088.089-.014.015.088.087-.015.015.089.088-.015.016.089.088-.015.015.087.087-.015.016.088.087-.014.089-.015.015.088.014.088.014.088.088-.015.015.087.015.089.087-.016.016.089.087-.015.015.087.087-.015.017.089.013.088.09-.015.015.088.089-.014.014.088.015.088.088-.015.014.088.014.088.088-.015.015.088.089-.015.014.089.089-.015.013.088.089-.015.017.088.015.089.087-.015.015.088.089-.015.014.088.015.088.087-.015.014.087.089-.015.015.089.015.088.086-.015.016.089.015.087.088-.014.014.087.015.088.088-.014.013.088.089-.015.015.088.015.088.014.088.091-.015.013.088.016.088.086-.014.015.088.088-.014.015.088.016.089.088-.015.015.088.014.089.088-.015.014.088.016.088.088-.015.014.088.014.088.014.089.088-.015.014.088.089-.015.089-.015.086-.015.015.088.089-.014.177-.03-.016-.088.089-.015-.014-.088-.016-.088-.014-.089.086-.014-.013-.089-.016-.088.088-.015-.015-.088-.014-.088-.014-.088.088-.015-.015-.088-.015-.088.089-.015-.015-.088-.016-.088.09-.014-.016-.089-.014-.088-.015-.088.088-.014-.014-.088.087-.014-.015-.088-.015-.088.089-.015-.016-.088-.015-.087-.016-.089.09-.015-.014-.088-.015-.088.088-.015-.03-.176.087-.015-.016-.089-.013-.087.088-.015-.015-.087-.016-.088.087-.015-.014-.087-.015-.089.089-.014-.015-.088-.014-.088-.015-.088.088-.015-.058-.352-.03-.177-.014-.088.089-.014-.015-.088-.014-.088-.014-.089-.015-.087-.014-.088-.09.015-.013-.088.088-.015.087-.014-.014-.088.089-.014-.014-.088-.016-.089.088-.014-.015-.089-.014-.088-.015-.088.088-.015-.015-.089.088-.014-.016-.088-.014-.088-.015-.088-.014-.088.089-.014-.015-.089-.015-.087-.016-.088-.015-.089.089-.015-.014-.088-.015-.088-.015-.088.086-.015-.013-.087-.015-.089.089-.014-.015-.088-.017-.089.089-.015-.014-.088-.015-.088-.016-.088.088-.015-.014-.088-.014-.088-.015-.089-.028-.176-.016-.088-.059-.352-.03-.177-.029-.177-.014-.087.088-.015-.016-.089.088-.014-.016-.088.09-.015-.014-.085z"/><g fill-rule="evenodd" clip-rule="evenodd"><path fill="#4D3A2C" d="M42.493 8.44l-.088.015.015.089.086-.015-.013-.089z"/><path fill="#A8D8D0" d="M44.413 16.731l-.029-.177-.015-.087-.015-.089.088-.014-.015-.089-.059-.352-.014-.088-.015-.088-.013-.088-.015-.087-.09.015-.014-.089-.002-.09.076-.013-.014-.088-.068.01c-.011-.188-.042-.482-.137-.702l-.031-.176-.014-.087-.016-.089-.053.008-.079-.268-.027-.166-.031-.177-.014-.088-.028-.176-.029-.176-.016-.088-.028-.177-.03-.176-.014-.088-.029-.177-.015-.088-.029-.177-.03-.176-.014-.087-.029-.177-.029-.176-.015-.089-.029-.175-.028-.177-.03-.176-.015-.089-.015-.089-.015-.087-.086.015-.015-.089.087-.014-.015-.087-.086.015-.015-.088-.089.015-.015-.089-.016-.088-.054.01-.019-.451.086-.284.046-.01-.016-.089.088-.014-.015-.089-.014-.088-.014-.088-.029-.176-.015-.092-.015-.088-.015-.088-.087.015-.087.014-.016-.088-.086.014-.016-.087.09-.015-.016-.088-.087.015-.015-.088-.089.015-.087.015.014.088-.09.013.014.089-.086.014-.03-.175-.089.014-.015-.088-.087.014-.09.015-.174.03-.089.015-.354.058.016.088-.089.016-.088.014-.087.015.015.088-.089.014-.088.015.004.03-.166.086-.088.016-.088.014.01.059-.082.043h-.001l-.087.015-.089.015.008.06-.081.043-.088.015.004.029-.168.089-.164.117-.086.014-.088.015-.177.03.015.088-.089.015-.088.015.014.087.014.083-.014.01-.072.011-.015-.088-.089.014-.087.015.014.088-.088.015-.088.016-.088.014.015.088-.089.014-.087.015-.088.014-.089.016.016.087-.089.015-.088.015-.088.015-.088.015.015.088-.088.015-.087.014.013.088-.087.015-.088.015.014.088-.088.015-.176.03.015.087-.09.015-.087.015-.087.015-.09.014.017.088-.091.015-.087.015-.087.015.014.088-.087.015-.089.014-.088.015-.089.015-.087.015.015.088-.09.015-.175.029-.088.014.015.087-.089.016-.089.014-.087.015-.09.015.016.088-.088.015-.089.015.015.087.015.088-.089.015.015.088.029.177.028.176.09-.015.015.088.088-.015.014.088.089-.014.088-.015.014.088.087-.014.015.088.088-.015.088-.015.015.088.09-.015.088-.015.014.089.088-.015.089-.015.014.088.088-.015.014.088.087-.015.014.089.088-.015.016.088.087-.015.015.088.089-.014.016.087.085-.014.016.088.088-.015.015.088.087-.014.015.088.089-.015.014.089.087-.015.015.088.088-.014.089-.015.013.088.09-.014.014.088.088-.015.015.088.088-.014.015.087.088-.015.014.088.088-.015.088-.015.015.088.087-.014.015.087.088-.014.015.088.089-.016.015.088.087-.015.016.088.087-.015.015.089.088-.015.016.088.087-.015.014.088.089-.014.086-.015.016.089.088-.016.015.088.088-.015.014.088.089-.014.014.088.088-.015.013.089.088-.014.016.087.086-.014.016.088.087-.015.015.089.089-.015.014.088.089-.015.015.088.087-.014.016.088.087-.016.015.088.013.089.09-.014.014.087.087-.014.015.088.089-.015.015.088.087-.014.016.088.087-.015.015.089.089-.014.014.087.016.089.086-.015.014.087.089-.014.014.087.088-.014.014.088.016.088.087-.015.015.088.089-.015.014.088.016.088.088-.015.015.088.087-.015.015.089.087-.015.014.087.015.089.088-.015.016.088.087-.015.015.088.015.089.089-.015.014.088.088-.015.015.088.014.088.089-.015.015.088.087-.016.015.09.086-.015.016.088.013.088.09-.016.014.089.089-.015.089-.015.015.088.088-.015.088-.015.014.088.088-.014.089-.015.014.088.088-.015.088-.016.088-.014-.016-.088.089-.015-.014-.088.087-.015-.015-.087.089-.016-.014-.087.086-.015-.015-.089-.014-.087-.016-.089.088-.015-.005-.073zm-2.038-7.908l.015.088.015.088-.111-.118-.006-.043.087-.015z"/></g><g fill-rule="evenodd" clip-rule="evenodd"><path fill="#4D3A2C" d="M52.546 3.803l-.008-.093-.009-.093-.093.008.018.187.092-.009z"/><path fill="#7D614D" d="M56.624 9.532l.093-.008-.009-.094-.008-.093-.009-.093-.008-.094-.093.008-.008-.092-.009-.093-.094.009-.009-.094-.092.009-.008-.093-.093.008-.009-.093-.092.008-.008-.093-.093.008-.008-.093-.093.008-.008-.093-.008-.093-.093.008-.008-.094-.009-.092-.092.008-.009-.094-.008-.093-.094.009-.009-.093-.007-.093-.093.009-.009-.093-.008-.093-.092.008-.009-.093-.093.009-.008-.093-.095.008-.007-.093-.092.008-.009-.093-.009-.093-.092.008-.01-.09-.008-.092-.094.008-.008-.093-.092.008-.008-.093-.094.008-.008-.093-.009-.093-.091.009-.01-.093-.092.008-.01-.094-.007-.092-.092.008-.009-.093-.009-.093-.094.008-.009-.093-.007-.093-.092.008-.009-.093-.009-.093-.092.008-.008-.093-.009-.092-.093.009-.018-.188-.008-.093-.092.008-.009-.093-.008-.092-.009-.093-.009-.093-.091.008-.017-.187-.009-.093-.093.008-.008-.093-.008-.092-.094.008-.008-.093-.008-.092-.094.008-.008-.093-.009-.093-.093.009-.093.008-.009-.093-.092.007-.008-.092-.093.009-.093.008-.094.008-.092.008.009.093-.093.008.008.094-.093.008-.093.009.007.093-.186.017-.092.009-.008-.093.092-.008.093-.008-.008-.093.093-.009-.009-.092-.008-.094.092-.009.094-.007.092-.009-.008-.092-.092.008-.095.008-.008-.093-.092.008-.009-.093-.093.008-.093.008-.017-.186.186-.017.093-.008-.008-.093.093-.008.093-.009.007.093.093-.008.009.092.092-.008-.014-.186.094-.009-.009-.092-.009-.094.093-.007-.008-.093-.094.008-.008-.093-.007-.093-.094.008-.008-.092-.093.008-.008-.093-.093.008-.094.008-.092.009-.092.008.008.093-.093.009-.092.008.009.093-.093.008.008.093-.094.01.009.093-.093.008.009.092-.093.009.008.093-.093.009.009.092.008.093-.095.007.008.093-.093.008.009.093-.093.008.008.093.008.093-.093.008.008.093-.094.009.009.093-.093.008.008.093-.092.009.009.093-.093.009.008.092-.093.009.009.093.009.093-.093.008.008.093-.093.008.008.093-.094.008.009.093-.093.009.008.094-.092.007.008.094-.094.009.009.093.009.093-.092.008.008.093.009.093-.092.008.004.093-.092.008.009.093-.094.008.009.093.009.093-.093.008.009.093-.093.009.008.094-.093.008.009.093-.093.009.008.093-.093.008.009.092-.094.009.008.093.008.092-.093.009.009.092-.095.009.008.092-.092.009.008.093-.091.008-.093.008.008.093-.093.008-.091.009.008.093-.094.008.009.093.009.093.008.093-.094.008.009.094.009.093.008.092.094-.008.009.093.003.095.092-.008.008.092.093-.007.094-.008.008.093.093-.009.093-.007.092-.009.374-.033.373-.033.092-.008.008.092.093-.008.093-.008.092-.009.009.093.186-.017.373-.033.008.093.093-.008.094-.009.093-.008.008.093.093-.008.093-.008.093-.008.092-.009.008.094.187-.017.092-.008.009.094.093-.008.093-.008.009.092.092-.008.093-.009.009.094.093-.008.092-.009.009.093.094-.008.092-.008.093-.008.008.093.093-.008.092-.008.009.092.093-.008.092-.008.009.092.187-.017.007.093.095-.008.092-.008.093-.009.008.094.095-.009.186-.017.008.092.094-.007.091-.009.009.093.093-.008.092-.008.009.093.093-.008.007.093.094-.008.092-.008.009.093.094-.013.092-.009.009.093.094-.008.092-.009.009.093.187-.017.008.093.093-.009.093-.008.008.093.094-.008.091-.008.009.093.186-.017.094-.009.185-.016.093-.009-.009-.093.092-.008-.008-.093.093-.008-.006-.092z"/><path fill="#4D3A2C" d="M53.308 2.463l-.093.003.003.092.092-.002-.002-.093zM52.947 2.849l.002.094.095-.003.001.093.094-.002.094-.003.002.093.094-.003-.003-.093.093-.003-.005-.187-.002-.094-.094.003-.003-.093-.094.003-.002-.094-.093.003.003.094.002.093.003.094-.094.003-.006-.187-.094.003.003.093.004.093z"/></g><g fill-rule="evenodd" clip-rule="evenodd"><path fill="#CBCB30" d="M70.482 5.408l.009.09-.091.009-.009-.09zM70.302 5.421l.009.089-.09.009-.009-.089zM70.375 6.944l-.089.01-.009-.089.088-.01-.01-.089-.089.009-.087.01.009.088-.089.01-.02-.177.178-.02-.01-.089-.088.01-.089.01-.008-.089-.01-.088.087-.01-.018-.178-.089.009-.009-.089-.01-.089-.011-.088-.088.009-.009-.089-.01-.088-.089.009-.01-.089.09-.01-.011-.088.091-.01-.01-.088-.01-.089-.179.02-.01-.089-.009-.089-.009-.089-.09.009-.067.009-.017-.09.075-.008-.009-.089-.083.008-.016-.087-.099-.085-.01-.083-.009-.089-.089.01-.009-.089-.09.01-.009-.089-.01-.088-.178.019-.01-.089-.01-.088-.088.01-.009-.09-.09.01-.089.009-.01-.089-.087.01-.01-.089-.09.009-.009-.088-.088.01-.01-.09-.09.01-.008-.089-.088.009-.01-.088-.09.009-.088.01-.01-.089-.09.009-.009-.088-.087.01-.01-.089-.09.01-.088.009-.009-.089-.09.009-.01-.089-.088.01-.01-.089-.088.01-.011-.088-.087.01-.01-.09-.089.01-.01-.088-.089.009-.01-.088-.088.009-.009-.089-.089.01-.009-.089-.089.01-.009-.089-.09.009-.01-.088-.088.01-.088.009-.089.01-.089.009.009.089-.089.01.01.088-.089.011.011.089-.088.009.008.089.01.088.01.088.019.178.01.089.009.089-.087.009.009.09.019.177-.088.01.009.089.01.088.01.089-.089.009.009.09.01.088-.089.011.011.088.009.089-.088.01.01.089.01.088.009.089.009.088.01.089.011.089.008.089-.087.01.01.088.019.178.009.089-.089.009.009.09-.089.009.011.089.01.089-.088.009.008.089.01.089-.089.01.01.088.011.088.038.356-.09.009.011.089.001.088.009.089-.087.01.008.089.01.089.01.089-.089.009.02.178.009.088.009.09.011.089.01.089-.089.01.01.088.01.089.01.089.009.088-.09.01.01.089.02.178-.088.009.01.089.009.089.01.088-.088.01.01.088.008.089.089-.009.01.088-.179.02.02.177-.087.009.008.089-.088.009.01.089-.09.009.011.089.009.088-.087.009-.089.01.009.089-.09.01.009.089.01.088-.087.01.009.089.089-.01.009.089.09-.01.01.089.009.089.177-.02.011.089.009.089.088-.01.089-.009.01.089.089-.01.088-.01-.009-.089.089-.009.087-.009.088-.009-.009-.09.088-.009.088-.01-.009-.088.089-.01-.01-.089-.01-.089-.089.01-.009-.089-.009-.089-.019-.177.088-.01.01.089.009.088.009.089.089-.009.089-.01.011.089.087-.01.089-.009-.008-.089-.09.01-.009-.088-.01-.089.178-.02.019.178.088-.009-.009-.089.088-.01-.008-.088.088-.01-.009-.089.087-.01.01.089.089-.009.009.088.177-.02-.008-.088.087-.009.09-.01.089-.01-.01-.089.09-.009.088-.009.09-.01.088-.009-.01-.089.091-.009.088-.01-.01-.089.088-.009.087-.009-.008-.09.089-.009-.01-.088.089-.01.089-.009-.009-.089.088-.009-.011-.089.09-.01.089-.01-.01-.088.089-.01-.011-.088.088-.01.089-.01-.009-.089.089-.01.089-.009-.009-.088.088-.009.088-.01.087-.01-.009-.09.089-.009.088-.01.09-.01-.011-.088.089-.01.177-.019.091-.01.087-.009-.01-.089.177-.019-.009-.089.089-.01-.009-.089.088-.01-.01-.088.089-.01-.01-.089.088-.009.089-.009-.009-.089-.01-.088.088-.01-.01-.088-.009-.09.089-.009-.002-.089z"/><path fill="#BABD41" d="M70.505 7.29l-.009-.089.09-.009.009.089z"/><path fill="#CBCB30" d="M71.797 6.791l-.009-.088.087-.01-.009-.089-.009-.088-.009-.089-.089.01-.01-.09-.01-.088-.008-.089-.089.009-.01-.088-.087.009-.011-.088-.09.009-.009-.088-.088.01-.009-.089-.089.01-.01-.089-.088.009-.089.009-.009-.088-.088.009-.01-.088-.09.009-.009-.088-.088.009-.091.009-.009-.088-.088.009.01.089-.088.01.008.089.09-.009.018.176-.088.01-.009-.088-.092.007-.01-.089-.087.01.008.089-.087.009.009.088.088-.01.09-.01.008.089.09-.01.009.089.02.178.178-.019.009.088.09-.009.018.177-.089.01.009.089.01.089.01.088-.088.009-.01-.088-.089.009-.088.01-.089.009.01.088.088-.01.01.089.089-.009.009.089.02.178.089-.01.009.088.088-.009.178-.019.09-.009.177-.019.088-.01.089-.01.088-.009-.009-.089.088-.009.088-.01-.009-.088.088-.009-.009-.087z"/></g><g fill-rule="evenodd" clip-rule="evenodd"><path fill="#4D3A2C" d="M80.687 8.351l.09-.01-.011-.089-.008-.088-.089.009.01.088.008.09z"/><path fill="#A8D8D0" d="M83.687 9.466l-.011-.089-.009-.089.087-.01-.009-.088-.088.01-.009-.089-.011-.089-.01-.088-.008-.09-.089.01-.01-.089-.01-.089-.089.01-.009-.089-.011-.088-.175.018-.09.01-.01-.088-.088.009-.089.01-.089.009-.178.019-.088.01-.009-.088-.089.01-.089.01-.088.009-.01-.09-.089.01-.089.01-.089.009-.087.01-.01-.089-.09.009-.089.01-.088.009-.087.009-.089.011-.01-.089-.089.01-.356.039.01.088-.088.009-.09.009-.087.011-.088.009-.088.01.009.089-.007.001-.18-.064v-.006l-.01-.089-.009-.09.087-.01-.009-.088-.089.01-.088.01-.01-.089-.088.009-.008-.089-.092.01-.088.01-.088.009-.009-.088-.088.009-.09.01-.088.009-.089.01-.018-.092-.088.009-.09.01-.089.01-.088.009-.009-.089-.09.009-.089.01-.088.01-.09.01-.01-.089-.086.01-.09.009-.088.01-.01-.09-.178.019-.088.01-.088.009-.01-.088-.091.01-.177.019-.088.01-.01-.09-.088.01-.089.01-.089.01-.087.01-.09.009-.087.009-.089.01-.01-.089-.177.019-.178.02-.089.01-.011-.089-.086.01-.089.009-.089.01-.089.009-.088.01.01.088-.089.009-.088.01.01.088-.091.01.01.089-.087.009.009.089.019.178.011.088.089-.01.01.09.01.088.089-.009.008.089.01.089.09-.009.01.088.086-.009.011.089.089-.01.009.088.089-.01.01.089.089-.009.01.089.009.089.091-.009.008.089.011.088.088-.009.01.088.009.09.088-.01.01.088.008.09.09-.011.01.089.009.089.01.088.089-.009.01.088.009.089.09-.009.01.089.009.089.01.089.088-.009.019.177.011.09.009.088.01.089.088-.01.008.087.021.179.019.179.01.088.089-.009.009.089.089-.01.02.178.019.178.01.088.009.09.01.088.088-.01.02.178.018.178.088-.01.009.089.01.088.011.09.009.088.091-.009.039.356.008.088.011.089.089-.009.011.088.019.178.009.089.009.089.088-.01.011.089.009.088.009.089.089-.009.008.089.011.089.011.088.088-.009.009.088.01.088.09-.009.038.355.01.089.009.089.087-.01.021.178.008.089.01.089.088-.01.038.356.021.177.019.177.011.09.018.177.01.089.01.089.088-.01.01.09.008.088.088-.009.011.088.09-.009.088-.01.009.088.01.089.088-.01.18-.019.087-.01-.01-.088.09-.01-.01-.089.088-.009-.01-.089-.01-.088-.009-.089.09-.009-.009-.09.088-.009-.01-.089.088-.009-.009-.089.088-.01-.01-.089-.01-.088.09-.011-.011-.088.089-.01-.011-.089.091-.009-.01-.09.087-.009-.009-.089-.009-.089.088-.01-.01-.088.089-.01-.01-.089-.009-.089.088-.009-.009-.089.088-.009-.009-.089-.012-.088.09-.01-.01-.088.088-.01-.008-.089-.011-.09.091-.009-.012-.089-.008-.088.087-.009-.01-.089-.01-.089.089-.009-.01-.089.089-.009-.01-.089-.009-.089.088-.009-.009-.089-.011-.089.091-.01-.01-.088-.01-.089.087-.009-.01-.089-.009-.089.088-.009-.009-.089.089-.01-.009-.088.09-.01-.01-.088-.009-.089.088-.009-.01-.089-.009-.088.088-.01-.01-.088-.009-.089.087-.009-.009-.089.089-.009-.009-.09-.01-.088.089-.009-.011-.089.088-.009-.008-.089-.01-.089.089-.009-.011-.089-.009-.088-.01-.089.089-.01-.01-.089-.009-.088.088-.01-.011-.089.089-.009-.008-.088-.01-.089.089-.01-.011-.089-.009-.088.088-.01-.01-.089-.009-.089-.01-.089.089-.009-.011-.089.089-.009-.009-.089.089-.009-.009-.09.087-.009-.009-.089-.01-.089.089-.01-.01-.089.089-.01.09-.009-.009-.088.087-.009-.01-.089.089-.01-.01-.089.089-.01-.01-.088-.009-.09.089-.009-.001-.094z"/></g><g fill-rule="evenodd" clip-rule="evenodd"><path fill="#7D614D" d="M98.236 6.818l-.009-.088.088-.01-.011-.089-.009-.089-.009-.088-.01-.09-.089.009-.009-.087-.089.009-.089.009-.01-.088-.088.009-.088.009-.178.02-.178.02-.088.009-.089.01-.01-.089-.089.01-.089.009-.087.01-.09.009-.088.009-.087.01-.01-.089-.089.01-.178.02-.179.019-.088.009-.177.019-.178.019-.355.039-.088.01-.09.009.01.089-.09.009-.354.039-.178.02.01.089-.088.01-.089.009-.089.01-.089.009.009.089-.086.009-.178.02-.178.019-.088.009-.18.019-.361.037.008.088-.087.01-.089.009-.088.01-.09.01.011.089-.09.01-.088.01-.011-.09-.086.011-.089.009-.09.009-.176.02-.089.009-.089.01.011.09-.09.009.01.089.009.088.02.178-.087.009-.011-.088-.014-.089-.009-.089-.09.01-.01-.089-.009-.089-.178.02-.009-.091-.09.01-.088.009-.088.01-.088.01-.089.009-.088.009-.01-.089-.089.009-.089.01-.009-.088-.089.009-.09.009-.176.02-.089.009-.179.02-.177.019-.011-.089-.089.011-.089.009.01.089-.087.009-.088.01-.089.009-.088.01.01.089-.089.009.009.09-.087.009.01.089.01.089.009.088.009.089.011.09.087-.01.009.088.01.089.089-.009.008.088.09-.009.01.089.09-.01.009.09.088-.01.01.088.088-.01.008.089.09-.009.089-.009.01.087.087-.009.01.089.178-.019-.02-.178.089-.01.09-.01-.01-.089.045-.003.062.171.191.094.017.154.088-.01-.01-.088-.001-.01.19.093.008.076-.088.009-.09.01-.088.01-.009-.089-.09.01.009.089.006.089.011.089.089-.01.009.09.009.088.089-.01.009.09.089-.01.011.088.088-.009.009.088.089-.009.01.09.089-.011.009.089.01.089.088-.01.009.089.088-.01.01.089.089-.009.008.089.011.089.09-.009.01.089.01.089.089-.01.009.089.009.088.089-.009.009.089.01.089.088-.01.01.089.009.089.01.089.089-.009.01.088.009.089.01.089.089-.01.01.09.089-.01.009.088.009.09.087-.01.011.089.01.09.089-.01.009.088.01.088.088-.009.01.089.01.088.089-.009.02.178.01.088.089-.01.011.089.01.089.009.089.01.089.087-.01.009.089.01.088.01.089.088-.01.01.089.009.089.089-.01.009.089.02.178.01.088.089-.009.01.089.008.088.01.089.088-.01.01.089.01.089.01.088.088-.009.02.178.008.089.01.088.088-.01.011.089.008.089.091-.01.019.178.01.09.01.087.089-.009.009.088.089-.009.01.089.089-.01.01.089.087-.01.009.089.357-.039-.009-.09.089-.009-.009-.088.089-.01-.011-.088-.009-.09.087-.009-.008-.088-.01-.089.089-.01-.01-.089-.009-.089.089-.009-.01-.089.088-.009-.009-.089.089-.009-.01-.089-.011-.089.088-.009-.009-.089.09-.01-.009-.088-.01-.089.09-.01-.011-.089.088-.009-.01-.088.088-.01-.008-.088.087-.011-.009-.088-.01-.089.089-.009-.01-.089-.01-.088.09-.01-.01-.088-.009-.09.088-.009-.01-.089-.009-.088.087-.01-.01-.089-.009-.089.088-.009-.009-.089-.01-.088.089-.01-.011-.089-.008-.089.089-.009-.01-.089.088-.01-.01-.088-.01-.089-.01-.09.088-.009-.008-.088-.011-.089.09-.01-.011-.089-.009-.088.089-.009-.01-.09-.009-.088.087-.01-.009-.088.089-.009-.01-.089.087-.009-.008-.089-.01-.089-.011-.088-.086.009-.011-.089-.009-.089.088-.01-.01-.089-.087.009-.01-.088-.011-.089.089-.01-.009-.088-.089.01-.177.018-.01-.088-.009-.089-.01-.089.088-.009.088-.009.01.088.088-.009.088-.01.011.088.087-.009-.008-.088.088-.009-.009-.09-.09.01-.01-.089-.087.01-.009-.09.087-.009.178-.02-.01-.089-.01-.089-.009-.089-.088.009-.009-.089.088-.009-.011-.089.088-.009.011.088.01.089.088-.01-.01-.089.089-.01-.012-.088.09-.01.01.089.01.088.178-.019-.009-.089.088-.01-.01-.088.088-.009-.009-.089-.01-.088.089-.011-.01-.088.091-.01-.01-.09-.021-.177.089-.01-.009-.088-.01-.089.088-.009-.009-.089-.01-.089.088-.01-.009-.088-.01-.089-.01-.088.09-.01-.011-.089-.009-.089-.009-.089-.01-.088-.011-.089.089-.009.012-.092zm-6.518.433l-.271-.014-.005-.046-.008-.09.088-.009.009.089.088-.009.089-.009.01.088.089-.01.009.089.011.09.009.088-.118-.257z"/><path fill="#4D3A2C" d="M90.758 8.343l-.09.01.01.089.089-.01.01.089.088-.01-.009-.088-.01-.089-.01-.089-.088.01.01.088zM96.922 9.659l-.01-.09.088-.01.01.09z"/></g><g fill-rule="evenodd" clip-rule="evenodd" fill="#CBCB30"><path d="M109.213 1.049l-.011-.089-.089.01.02.177.089-.009-.009-.089zM110.939 7.877l-.011-.089-.009-.088.087-.01-.009-.089-.01-.09-.009-.088-.09.009-.038-.355-.02-.178-.01-.09-.089.01-.009-.088-.009-.09-.01-.088-.01-.089-.009-.089-.088.01-.01-.088-.009-.09-.088.01-.011-.089-.019-.178-.178.019.01.089.009.089.088-.01.01.089-.089.009-.088.011-.009-.089-.009-.089-.09.01-.009-.089.087-.01-.009-.088-.088.009-.01-.089-.089.009-.087.01-.01-.089-.011-.089-.087.01-.009-.089.088-.009-.01-.089.089-.009.089-.01.088-.01.09-.009-.009-.089.086-.009-.009-.089.09-.009-.01-.088-.019-.178-.01-.089-.09.01-.009-.089-.02-.178-.018-.177-.02-.178-.088.01-.01-.089-.009-.089-.01-.088-.01-.089-.019-.177-.011-.09-.009-.088-.087.01-.011-.09-.039-.355-.018-.178-.011-.089-.018-.178-.01-.089-.019-.178-.019-.178-.091.01-.009-.088-.01-.089-.009-.089-.01-.089-.088.01-.01-.088-.011-.089-.009-.088-.089.009-.008-.089-.009-.088-.088.009-.011-.089-.088.01-.01-.088-.09.01-.057.006-.025-.087.072-.008-.009-.089-.088.01-.01-.088-.01-.089-.02.001-.058-.265.049-.003.088-.01.01.089.089-.009-.01-.09.089-.009-.01-.089-.009-.089-.089.01-.011-.089-.01-.088-.009-.089-.009-.089-.09.01-.01-.09-.087.01-.01-.089-.089.01-.088.009-.178.02-.177.019-.089.01.008.089-.088.009-.089.01-.089.009-.088.01.01.089-.089.01-.089.009-.088.009.01.089.01.088-.089.011-.089.009-.088.01.01.089-.088.01-.09.01.01.088-.088.01-.088.009.007.089.01.088-.088.009-.009-.088-.089.009.01.089-.179.019-.088.01.01.089-.089.009-.086.01-.09.01-.09.01.011.089-.09.009-.087.01-.088.009.009.088-.088.01-.089.01.008.088-.088.009.009.09-.088.01.011.089-.09.009-.177.019.009.089-.088.01-.088.009.009.089-.089.01-.089.009.009.089-.089.009-.087.01-.09.01.01.089-.088.009.01.089-.089.009-.089.009.01.09-.089.009.008.089-.088.01.009.088-.087.01.008.089-.088.01.011.089-.09.009-.087.009.009.089-.09.01-.087.01.009.088-.089.009.009.089-.088.009.011.089-.09.01.01.089-.088.009-.089.009.01.089-.087.009.009.089-.089.01.01.089-.089.009-.089.01.009.089-.088.01-.087.009.009.089-.09.01.01.089-.09.009.009.089-.087.01.009.088-.089.009.01.09-.088.009-.089.01.009.089-.089.009-.088.01.009.088-.089.011.011.089-.088.01.01.089-.089.009.009.089-.088.009.009.089.01.089.01.088.089-.009.008.088.09-.009.01.088.088-.009.01.089.087-.01.011.089.009.089.178-.02.09-.009.088-.01.089-.009.009.089.089-.01.089-.01.087-.009.01.089.089-.009.088-.01.009.089.089-.01.09-.01.089-.01.087-.009.01.089.088-.009.089-.01.09-.009.008.088.09-.009.088-.01.009.088.089-.009.009.089.091-.01.088-.009.009.089.091-.01.088-.009.087-.01.01.088.089-.009.178-.02.009.089.09-.01.088-.009.009.089.089-.009.088-.011.089-.009.009.088.088-.009.09-.01.009.089.089-.01.009.089.088-.009.09-.01.09-.01.009.089.089-.01.088-.01.01.09.087-.01.089-.009.011.088.088-.009.01.089.088-.01.087-.009.01.089.09-.01.088-.01.01.09.088-.01.088-.009.009.089.089-.009.089-.01.009.089.09-.01.01.089.087-.01.09-.01.01.089.087-.009.011.088.089-.01.087-.009.01.089.089-.01.089-.01.01.088.088-.01.089-.009.01.089.089-.009.009.089.088-.009.089-.01.01.088.088-.009.009.089.088-.01.089-.01.01.089.089-.011.009.09.089-.01.01.089.088-.009.089-.01.01.088.087-.009.089-.009.009.089.09-.009.087-.01.01.089.089-.01.01.088.089-.01.088-.009.009.088.091-.009.086-.01.009.088.09-.009.088-.009.089-.01.01.088.088-.009.09-.01.009.088.089-.009-.01-.089.089-.009.088-.01-.01-.089.09-.009-.004-.087zM110.245 5.613l-.011-.089-.089.009-.088.01-.088.009.01.089.088-.009.011.088.087-.01.009.089.091-.009-.01-.089-.01-.088zM110.272 5.88l.087-.009-.008-.09-.088.01.009.089z"/></g></svg>