<svg xmlns="http://www.w3.org/2000/svg" width="116.454" height="28.097" viewBox="0 0 116.454 28.097"><g fill-rule="evenodd" clip-rule="evenodd"><path fill="#fff" d="M42.425 20.303l.086.023-.024.086-.085-.023-.087-.024-.085-.023-.087-.024.022-.086-.084-.023.022-.086.024-.087.086.023.086.024.024-.086.084.023-.023.086.087.024-.023.087-.023.086zm40.385-20.285l-.016.088-.088-.016.016-.088zm-23.078 16.124l.068-.058.058.068.058.068-.067.058-.068.059-.058-.069.068-.058-.059-.068zm.234.273l-.059-.069.066-.059.059.07-.066.058zm0 0l.056.067-.067.059-.057-.068.068-.058z"/><path fill="#4D3A2C" d="M85.837 22.45l.031.176-.088.015-.017-.088-.014-.089.088-.014z"/></g><g fill-rule="evenodd" clip-rule="evenodd"><path fill="#4D3A2C" d="M85.78 22.641l-.017-.088-.014-.089.087-.014.031.176-.087.015z"/><path fill="#A8D8D0" d="M39.723 15.413l.037-.08.153-.323.081.038.038-.08.083.038.035-.082.083.039.08.038.039-.08.079.038.038-.081.081.038.038-.081.082.039.037-.081.081.038.039-.081.08.037.039-.08.081.039.036-.082.081.04.04-.081.081.038.036-.081.082.039.04-.081.079.038.038-.08.083.038.036-.082.082.039.037-.081.083.039.035-.082.082.039.037-.081.082.039.037-.081.081.038.04-.081.074.036.011-.005.033-.074.055.026.045-.023.021-.045.033.016.079-.045.007-.013.039-.081.062.03.031-.017.022-.056.04-.081.08.039.037-.082.051.023.058-.04.014-.025.014.007c.285-.18.685-.375.912-.502l.021-.043.039-.082.081.039.038-.08.08.037.039-.081.038-.082.082.039.037-.08.038-.082.08.038.037-.081.082.039.038-.081.04-.081.079.039.038-.08.039-.081.083.038.036-.081.04-.08.076-.161.076-.163.038-.081.039-.08.079.038.075-.162.082.039.039-.081.038-.081.081.039.039-.081.08.038.038-.082.082.04.036-.083.082.039.16.076.162.077.081.039.08.038-.038.081.081.038-.038.081.08.038-.038.082-.038.08-.082-.038-.037.081-.037.082-.04.08-.037.081-.039.081-.039.08.081.039-.038.081-.038.08.081.039-.038.081.081.038-.039.081-.037.081.078.038-.037.081.08.039-.036.08.08.039-.038.082.081.039-.04.08.082.039-.038.081.081.038-.039.081-.038.081.08.038-.037.081.081.038-.038.081.08.038-.039.081-.039.081.082.039-.037.08-.04.082.08.038-.038.081-.038.08.081.039-.039.08-.037.081-.039.081-.038.081.161.077-.037.081.081.038.081.039-.04.081-.038.081.08.039-.036.082.082.038-.04.08.079.038-.038.081-.038.082.082.038-.039.081.08.038-.036.08.079.039-.038.081-.038.08-.038.081-.039.081-.039.081.08.038.04-.081.08.039-.038.081-.038.081.081.039-.038.081.08.038-.038.08-.077.161.082.039-.04.082-.036.08.078.039-.037.08-.039.082-.037.08.082.04-.04.08-.037.081-.039.081.081.039-.038.081-.04.081.082.038-.039.081-.038.081.082.039-.039.08-.037.082-.04.081.083.039-.04.08-.036.082.077.037-.038.082-.037.081-.04.081.083.04-.038.081.081.038-.04.082-.039.08.082.039-.039.08.082.039-.04.08-.037.082.082.038-.04.081.083.039-.039.081-.038.081.081.039-.04.081.081.039-.039.08-.037.081.081.038-.039.082.081.038-.038.081.082.038-.077.162-.077.162-.08-.038-.083-.039-.037.08-.08-.039-.082-.038-.038.082-.08-.038-.082-.04-.037.081-.081-.039.038-.08-.081-.039-.079-.038.038-.082-.083-.039.039-.08-.079-.038-.081-.039.037-.08-.081-.039-.08-.038.037-.082-.079-.039-.082-.037.04-.082-.082-.039.038-.08-.08-.039-.163-.077-.16-.077-.08-.038-.082-.039.038-.08-.08-.039-.081-.038-.081-.039.039-.081-.082-.039-.16-.077-.081-.038-.08-.038.037-.082-.08-.038-.082-.039-.079-.038.038-.08-.082-.04-.079-.038-.081-.038-.082-.039.038-.081-.161-.077-.08-.038-.079-.039-.083-.039.038-.081-.08-.039-.163-.076-.08-.038-.08-.04-.083-.038.04-.081-.079-.038-.082-.039-.08-.039.038-.08-.081-.039-.079-.038.038-.081-.081-.039-.081-.038.037-.082.081.039.039-.081-.081-.039-.081-.039.038-.08.022-.05-.141-.117-.005.009-.081-.039-.081-.039-.081-.038-.079-.039.038-.08-.069-.062-.05.105-.161-.077.038-.081-.081-.039-.04.081-.078-.038.037-.081-.081-.038-.08-.038-.083-.039-.079-.039-.081-.037-.079-.039-.082-.039-.078-.038.036-.081-.082-.039-.08-.038-.083-.04.04-.081-.081-.038-.081-.04-.08-.037.039-.08-.081-.039-.161-.077-.081-.038-.161-.078-.081-.038-.081-.039-.038.081-.083-.038-.077-.038-.163-.077-.161-.076-.08-.037-.081-.039.037-.082-.081-.038.038-.082-.08-.038.037-.078z"/></g><path fill-rule="evenodd" clip-rule="evenodd" fill="#7D614D" d="M59.441 15.801l.068-.057.069-.058.066-.059.069-.058.067-.058.059.068.067-.058.07-.058.056.066.069-.057.059.068.067-.058.058.068.058.067.058.068.068-.058.059.068.058.067.058.069.059.067.059.068.067-.058.059.067.059.069.065-.059.06.068.058.068.066-.059.06.069.059.067.066-.058.06.069.058.068.068-.058.058.067.059.068.067-.059.058.068.058.068.069-.058.058.069.058.066.059.07.067-.058.059.067.058.068.068-.058.058.067.059.068.057.067.068-.059.06.07.058.067.059.069.066-.059.059.068.059.068.068-.058.057.067.059.07.068-.058.058.067.058.068.069-.058.057.067.068-.057.059.067.058.068.068-.058.058.067.068-.057.057.067.058.068.069-.058.057.068.059.068.069-.058.057.067.058.067.068-.057.059.068.067-.06.059.068.068-.057.058.067.068-.056.059.067.057.067.067-.058.06.069.067-.059.058.068.068-.058.058.067.058.068.069-.058.058.068.067-.058.058.068.069-.057.057.066.067-.059.069-.058.059.069.068-.059.057.067.069-.058.066-.058.068-.058.059.069.059.068.068-.059.057.068-.067.058.059.069-.069.058.061.068-.07.058.058.067-.067.059-.067.059.058.067-.069.058-.067.057.059.069-.068.059-.068.057-.067.059-.057-.067-.07.057-.067.059-.059-.07-.066.059-.03-.035-.097.024v.001l-.067.058-.03-.034-.291.073-.067.057-.028-.034-.098.024-.069.058.059.068-.066.059-.137.116-.059-.068-.068.058-.067.058-.271.232-.137.116-.069.058-.066.058-.068.058-.068.058.057.068-.066.059-.067.058-.138.115-.057-.067-.068.058.058.067-.069.058-.066.058-.07.058-.057-.067-.066.06-.068.058-.069.057.059.067-.068.059-.067.058-.068.059-.136.116-.271.231-.069.059-.135.115-.137.117-.136.117.058.067-.068.059-.067.058-.067.058-.137.115-.136.117-.137.115-.068.058-.058-.067-.068.058-.067.059.058.067-.068.058-.067.058-.059-.069-.135.118-.274.23-.065.059-.137.116-.137.116-.136.116.059.068-.068.059-.068.058-.067.059-.069.057.059.068-.068.059-.067.058-.137.115-.137.116-.066.059-.068.058-.068.059-.058-.068-.068.058-.059-.068-.068.058-.056-.067-.061-.068-.058-.068-.117-.137.07-.058-.058-.067.067-.058-.059-.067-.057-.068.067-.059.067-.058-.058-.069.067-.058-.058-.068.067-.058.069-.058-.058-.067.069-.057-.06-.07.067-.059.068-.057-.058-.068.068-.058-.061-.07.069-.057-.056-.067.066-.058-.059-.067.069-.059-.06-.068.069-.059-.058-.067.066-.058-.059-.069.068-.058-.056-.067.067-.058-.06-.07.068-.056.068-.059-.057-.067.066-.06-.057-.065.067-.059.068-.058-.058-.068.067-.058-.059-.067.068-.06-.059-.067.067-.059-.057-.066.068-.06-.058-.067.068-.058-.06-.068-.058-.068.068-.057-.059-.069-.058-.067.068-.059-.06-.069-.056-.067.066-.058-.058-.068.067-.058.068-.059-.058-.068.068-.058-.059-.068.069-.057.066-.059-.057-.068.066-.058-.058-.069.069-.057-.059-.068.068-.058-.06-.067.068-.059-.057-.067.068-.059-.059-.067.066-.059-.056-.065.067-.059-.06-.07-.057-.068.068-.058-.059-.068-.057-.067.065-.06-.057-.067.067-.059-.057-.068.068-.057-.059-.069.067-.059-.059-.068.069-.057-.06-.069-.057-.067.067-.058-.059-.068.069-.058-.059-.069.135-.115.06.068.041-.033-.011-.107-.021.016-.06-.07-.066.058-.057-.067.067-.058.068-.058.066-.058v-.001l-.115-.137-.06-.067.069-.058-.06-.069-.056-.068-.067.06-.06-.07.067-.058.069-.059-.06-.068-.057-.066.067-.06-.043-.057zM14.061 14.969l.084-.013.014.087-.084.013-.014-.087zm.155 9.136l.086-.013.014.086.014.085.015.086.083-.014.016.086.087-.015.013.086.085-.014.015.086.088-.014.011.086.087-.014.088-.013.085-.014-.015-.085.086-.014.085-.014-.015-.086.087-.014.086-.014-.016-.085.088-.014.088-.014-.016-.086.088-.014-.017-.085-.013-.087.085-.013-.015-.087.086-.013-.014-.086.087-.015-.013-.085-.016-.085.086-.014-.015-.085.087-.014-.014-.086-.014-.086.085-.013-.014-.086.085-.013-.013-.087-.014-.084.085-.014-.014-.086.086-.013-.014-.086.085-.014-.014-.086-.015-.086.088-.014-.015-.086.086-.014-.013-.086-.016-.086.087-.014-.016-.085.087-.014-.014-.085.085-.014-.014-.086-.014-.084.086-.015-.014-.086.084-.014-.012-.086.085-.015-.014-.085.088-.014-.014-.086.085-.014-.016-.084.088-.015-.017-.086-.013-.086.086-.014-.014-.086.083-.013-.012-.086.086-.015-.014-.085.086-.014-.013-.086.086-.014-.013-.086.083-.013-.014-.085.087-.015-.017-.085.088-.014-.015-.085.087-.015-.014-.085.085-.014-.015-.085.087-.013-.015-.087.086-.014.086-.015-.014-.086.085-.013-.014-.086.086-.013-.014-.086.085-.014-.012-.086.084-.014-.014-.085.088-.013-.016-.086.087-.015-.015-.085.086-.015-.014-.086.086-.014.087-.014-.016-.085.086-.013-.014-.085.085-.015-.014-.085.087-.014-.015-.085.088-.015-.017-.085.087-.015.086-.014-.014-.086.086-.014-.016-.086.087-.013-.013-.086.085-.013-.014-.087.086-.013-.013-.086.082-.014-.013-.085.087-.014-.013-.086.086-.013-.013-.086.084-.014-.015-.086.086-.013-.016-.086.088-.014-.014-.086.085-.013.085-.014-.016-.086.088-.014.088-.014-.015-.085.086-.014.085-.013-.012-.086.086-.015-.017-.085.086-.013.087-.015-.015-.086.087-.013-.015-.086.088-.014-.03-.171-.027-.172-.014-.086-.085.014-.015-.086-.013-.085-.088.014-.085.014-.013-.086-.087.014-.087.013-.085.015-.087.014-.013-.086-.086.015-.171.026-.088.015-.013-.086-.086.014-.085.013-.087.014-.086.015-.085.013-.015-.085-.086.014-.084.013-.088.015-.012-.086-.088.015-.086.012-.084.014-.088.015-.013-.086-.171.027-.087.015-.014-.086-.086.014-.086.015-.015-.086-.085.014-.085.014-.015-.086-.087.014-.085.013-.085.015-.089.014-.011-.085-.087.013-.085.015-.087.014-.086.014-.014-.085-.085.015-.086.013-.087.014-.015-.086-.084.014-.088.015.015.086-.069.012-.017-.005-.013-.082-.015-.084-.085.013-.086.014-.015-.085-.173.027-.083.014-.085.014-.161-.074-.184-.03-.005-.028-.085.014-.089-.014-.01-.058-.087.014-.086.013h-.002l-.089-.014-.009-.058-.085.015-.087.013-.18-.029-.006-.029-.086.014-.086.015-.014-.086-.085.014-.087.014-.085.013-.013-.085-.344.056-.088.014-.17.027-.088.013-.085.015.016.085-.087.015.027.17-.085.014-.015-.086-.086.014-.014-.086-.085.014-.088.014.015.086-.086.014.012.086.088-.014.014.086-.084.014.012.086-.085.014-.084.013.014.087.015.085.012.085.029.172.013.085.015.086.015.086.085-.015.013.086.047-.005.167.235.122.422-.052.007.013.086.013.087-.085.013.013.085-.083.013.013.085.085-.014.015.087-.085.013.014.084.014.087.014.086.027.171.029.172.027.17.015.087.026.171.028.172.015.085.028.172.027.171.013.086.028.171.015.085.025.172.03.172.011.086.029.172.028.17.015.085.025.173.027.162.011.271-.052.009.012.087.015.085.027.172c-.02.232.043.514.092.69l-.067.012.015.085.075-.013.025.084.016.086-.088.014.013.085.015.085.015.086.014.085.055.343.015.086.086-.015.014.088.014.084.029.172.011.096zm.156-8.833l.008.042-.066.143-.012-.085-.015-.085.085-.015z"/><path d="M109.822 13.674l-.093.009-.093.008-.009-.094.187-.016.008.093zm6.367 2.985l.009.094-.094.007-.093.009-.093.008-.094.009-.008-.093-.093.009-.093.007-.009-.094-.094.009-.008-.093-.093.009-.009-.093-.093.007-.009-.092-.093.009-.008-.094-.094.009-.009-.094-.092.009-.093.009-.009-.094-.094.009-.093.007-.008-.092-.095.008-.093.009-.008-.094-.094.008-.093.01-.008-.093-.094.007-.093.009-.008-.092-.094.007-.008-.093-.093.009-.009-.095-.093.01-.009-.093-.093.009-.093.007-.009-.092-.094.007-.092.009-.009-.094-.093.009-.009-.093-.093.009-.009-.095-.093.009-.094.008-.008-.091-.093.007-.009-.093-.094.006-.092.011-.01-.092-.093.008-.093.008-.009-.094-.093.008-.093.01-.008-.093-.093.009-.094.007-.009-.092-.093.009-.092.009-.009-.094-.188.017-.093.009-.008-.093-.094.008-.092.009-.094.007-.094.009-.008-.092-.187.016-.093.009-.009-.094-.093.009-.093.009-.009-.094-.093.009-.092.009-.01-.093-.093.008-.094.008-.008-.094-.009-.093-.093.008-.009-.092-.093.009-.008-.094-.008-.092-.01-.095-.009-.093.094-.007-.009-.094.094-.008-.009-.093-.009-.094.093-.009-.017-.186-.008-.093-.094.009.009.093.009.093-.094.008.009.094-.093.008-.094.009.008.092.01.095.008.092-.092.009-.009-.092-.01-.096-.092.009-.009-.092-.093.008-.009-.093-.009-.094-.186.017.017.187.009.092-.093.009.009.094.008.094.093-.01.009.093.093-.007.009.092-.186.017.008.095-.092.007-.095.008.01.092-.094.009-.009-.094-.093.009-.093.01-.01-.095-.092.009-.009-.094-.093.009-.009-.093-.009-.094-.008-.093-.009-.092.093-.009-.008-.094-.009-.092.093-.008-.008-.093.093-.009-.008-.095.093-.008-.009-.094.093-.007-.008-.094.093-.008-.008-.093.092-.008.093-.008-.008-.094.093-.009-.009-.094.093-.007-.009-.094.094-.008.094-.008-.009-.094.093-.008-.008-.094.093-.008-.009-.093.093-.009-.008-.092.093-.008-.008-.093.092-.009-.008-.094.094-.008.093-.008-.009-.094.093-.009-.009-.093.093-.009-.009-.093.094-.007-.009-.094.094-.009-.009-.092.094-.009-.009-.095.093-.008.093-.008-.008-.093.092-.009.094-.007-.008-.093.092-.01-.008-.092.093-.009-.009-.094.093-.008.094-.008-.009-.094.093-.007-.008-.094.094-.009-.009-.093.093-.008-.008-.094.093-.008-.009-.093.093-.008-.009-.094.094-.008.092-.009-.008-.094.093-.007-.009-.095.092-.009-.008-.093.094-.009-.009-.091-.008-.093.093-.009-.009-.094-.008-.092.093-.009-.009-.094.094-.007.093-.008.093-.009-.009-.095.094-.007.093-.009.093-.009.008.094.094-.007.094-.009.008.092.092-.009.01.092.009.095.093-.009.008.093.01.093.008.092.034.374.034.372.008.093.093-.009.009.092.009.094.008.092.093-.008.017.187.034.372.094-.009.008.093.008.094.01.093.093-.009.009.094.008.093.009.093.008.092.094-.009.017.188.008.092.095-.007.009.092.009.093.092-.008.009.093.008.093.094-.008.009.094.008.092.093-.007.009.094.009.092.009.094.092-.009.009.092.009.093.093-.008.008.094.009.091.093-.007.018.186.093-.009.009.094.008.093.009.093.093-.009.009.096.017.186.093-.009.01.094.007.091.094-.008.008.094.009.092.094-.007.008.093.093-.01.009.093.009.092.093-.007.009.093.008.093.093-.009.01.093.008.093.093-.008.018.188.093-.009.008.093.009.093.093-.009.009.094.008.092.094-.008.017.187.008.094.019.186.008.093-.094.008.009.092-.093.009.009.094-.091.016zm-7.547-1.997l-.014-.091.092-.014.014.091-.092.014zm.314-.423l.092-.015.015.094.092-.016.014.093.015.093.092-.014.014.093-.093.014.014.091-.185.028-.093.014-.014-.093-.092.014-.014-.093-.093.015-.014-.092.093-.014.092-.014.093-.014-.014-.093-.186.028-.013-.093.092-.014.093-.012z" fill-rule="evenodd" clip-rule="evenodd" fill="#CBCB30"/><path d="M99.397 17.97h.092v.09h-.092zm.178.001h.091v.089h-.091zm.093 1.519h.089l-.001-.09h-.088v-.089h.177l.001.089h.089v-.178h-.179v-.09h.179l-.002-.09.001-.088h-.088l-.002-.179h.09v-.179l.001-.088h.089l-.002-.09.002-.088.089-.001v-.089h-.09l.002-.089h-.093l.001-.089v-.09h.18v-.178l-.002-.089.092-.001.068.002.006-.091h-.075l-.001-.089h.084l.006-.089.089-.095.001-.084-.002-.089h.091l-.002-.089h.091v-.178h.179v-.178h.089l-.001-.09h.181v-.09l.088.001v-.09h.091l-.001-.088h.089v-.09h.091l-.002-.089h.089v-.088h.179v-.09h.091v-.089h.088v-.09h.18l-.001-.089h.09v-.09h.09v-.09h.088l.001-.089h.088l.001-.09h.09v-.089l.09-.001v-.088h.089v-.09h.088v-.089h.09l-.001-.089.09-.001v-.089h.359v.089h.09v.088h.091l-.002.09h.089l.002.089-.001.089v.089l.002.179-.001.089.001.09.088-.001v.091l.001.178h.09v.09l-.001.089v.089h.091v.178l.09.001-.001.088.001.09h.089v.179l.001.09.001.088-.001.089-.002.09.002.089h.089v.268l.001.089h.089v.09l.091-.001-.001.09v.089h.089l.002.089-.001.09h.09l-.001.089v.089l.001.358h.092l-.002.089.001.089.001.089.088.001v.268h.09v.268l.001.09-.001.089v.089h.09v.357h.091v.269h.088v.089l.001.09v.089h.09v.089l.001.089h-.09v.089h.179v.179h.088l.002.09h.089v.09h.09v.179h.179v.09h.091v.179h.088l.001.089h-.089v.09h-.091v.09l.002.09h-.179v.179h-.089l-.09.001v.089h-.179l-.001-.089h-.267l-.002-.09h-.177l-.001-.088h-.089v-.178h.089l-.001-.089v-.09l-.001-.178h-.089v.089l.001.089.001.089h-.179l-.002.09h-.177l-.002-.089h.09v-.178l-.179-.001v.179h-.088l-.002-.089h-.089l-.002-.088h-.088l-.001-.089h-.088v.089h-.09l-.001.088h-.177l-.001-.088-.089.001h-.179v-.09h-.091l-.088.001h-.18l.001-.09h-.181v-.089h-.177l-.002-.09h-.09l.002-.089h-.18l-.002-.09h-.088l.001-.09h-.181v-.089l-.09-.001.001-.089h-.18l.001-.089h-.18v-.089h-.267v-.09l-.091.001h-.18l.002-.088h-.449v-.09h-.177l-.002-.089h-.09l-.001-.089h-.088v-.089h-.091v-.09h-.179l.001-.089v-.089h-.089v-.089l-.002-.09h-.089l.001-.1zm-.18.269h.091v.089h-.091zm-1.251-.267l-.001-.089h-.087l-.002-.089v-.089l-.001-.089h.089v-.09l.001-.089-.001-.089h.089v-.089l.089-.001.001-.089h.091l-.001-.089h.089l-.001-.09h.09l.001-.089h.178v-.088h.089v-.089l.091-.001-.002-.088h.089l.092-.001v-.089h.088v.089h.089l.002.09h-.091l.002.177h.089v-.089h.089v-.089h.088l.002.089h.088l.001.089h-.18l.002.09h-.09l.001.089-.001.179h-.18l.002.089h-.091l.001.178h.09v.268h.089v-.089l.09-.001.089.001h.09v.089h-.088l-.001.09h-.09v.268h-.09l.001.089h-.268l-.092.001h-.445l-.001-.09h-.177l-.002-.089h-.089v-.091z" fill-rule="evenodd" clip-rule="evenodd" fill="#7D614D"/><path d="M74.151 19.663l-.089-.022.024-.086.02-.086.088.022-.022.085-.021.087zm-3.126.685l.022-.086.022-.087-.086-.022.022-.086.085.022.021-.087.023-.086.021-.086.021-.088.088.022.021-.086.022-.087.088.022.021-.087.023-.085.17.042.089.022.022-.086.085.021.088.022.087.021.174.044.086.022.021-.086.086.022.087.022.087.022.022-.088.086.022.087.022.088.021.085.022.022-.086.088.021.086.023.086.021.085.021.088.023.021-.087.088.022.348.088-.022.086.087.021.088.021.085.023.086.021.086.022-.021.087.007.002.188-.038.001-.006.022-.086.021-.088-.085-.022.021-.086.087.022.086.022.022-.086.087.021.02-.087.09.022.086.022.086.021.021-.086.087.021.087.022.086.021.088.023.021-.087.086.021.088.023.088.022.085.021.022-.086.086.021.088.022.085.022.088.022.022-.087.084.022.089.022.086.022.022-.087.173.043.086.022.087.021.021-.086.089.022.172.043.087.022.022-.087.085.022.088.022.087.022.085.022.088.022.085.021.088.022.021-.087.174.043.173.044.088.022.023-.086.084.022.087.021.087.022.088.022.085.022-.021.086.088.022.085.022-.021.086.089.022-.021.087.085.021-.021.086-.044.174-.022.086-.087-.022-.021.087-.022.086-.087-.021-.02.087-.023.087-.089-.022-.021.085-.084-.021-.023.087-.087-.022-.021.086-.086-.022-.021.087-.088-.022-.022.087-.021.086-.089-.022-.021.087-.022.086-.087-.022-.022.086-.021.087-.086-.022-.022.086-.021.088-.087-.023-.022.087-.021.087-.022.086-.087-.021-.021.086-.021.087-.088-.021-.021.086-.021.087-.023.086-.085-.021-.044.173-.022.087-.022.086-.022.086-.085-.022-.021.085-.045.174-.044.174-.022.085-.087-.021-.021.086-.087-.022-.044.173-.044.174-.021.085-.022.088-.021.085-.086-.022-.045.174-.043.173-.086-.022-.021.087-.022.086-.023.087-.021.086-.09-.022-.087.347-.021.086-.023.086-.086-.021-.023.086-.043.173-.021.087-.021.086-.086-.022-.023.087-.021.086-.022.087-.086-.021-.021.087-.023.086-.024.086-.085-.021-.021.086-.022.086-.088-.022-.087.347-.021.087-.022.087-.085-.022-.046.173-.021.087-.022.086-.086-.022-.087.348-.046.172-.043.173-.023.087-.042.173-.022.087-.021.087-.087-.022-.023.087-.02.086-.086-.021-.023.086-.088-.022-.086-.022-.021.086-.022.087-.086-.022-.175-.043-.086-.022.022-.086-.087-.022.021-.086-.085-.021.021-.086.022-.086.021-.087-.087-.022.021-.087-.085-.021.021-.087-.087-.021.021-.087-.086-.022.022-.086.021-.086-.087-.023.021-.085-.086-.022.022-.086-.089-.022.021-.087-.084-.021.021-.087.022-.086-.087-.022.022-.086-.087-.022.022-.086.02-.087-.086-.021.022-.087-.087-.021.021-.087.024-.086-.088-.022.021-.086-.085-.022.02-.087.022-.087-.089-.021.024-.087.021-.086-.085-.021.021-.087.022-.086-.088-.022.022-.087-.087-.021.022-.087.021-.087-.086-.021.021-.087.023-.086-.09-.023.022-.086.023-.087-.085-.021.021-.086.021-.087-.086-.021.022-.087-.088-.023.022-.086-.088-.023.022-.085.021-.087-.086-.021.021-.087.021-.086-.086-.022.022-.086.021-.087-.084-.021.021-.087-.087-.021.021-.087.023-.086-.088-.021.023-.087-.087-.022.021-.086.022-.087-.087-.021.022-.086.022-.086.021-.086-.087-.022.021-.087.022-.085-.087-.023.023-.087-.088-.021.021-.086.022-.087-.086-.022.021-.086.022-.086-.087-.022.022-.086.021-.087.022-.086-.087-.022.023-.086-.088-.021.022-.087-.087-.021.021-.088-.085-.021.021-.087.021-.086-.088-.022.022-.087-.086-.022-.087-.022.021-.086-.085-.021.022-.087-.088-.022.022-.087-.088-.022.022-.086.022-.087-.087-.021.034-.097z" fill-rule="evenodd" clip-rule="evenodd" fill="#CBCB30"/><g fill-rule="evenodd" clip-rule="evenodd"><path fill="#A8D8D0" d="M84.398 20.877l.089-.015.013.089.015.088.017.088.015.088.013.088.09-.015.015.088.014.088.016.088.088-.014.014.088.017.088.087-.015.016.088.014.087.089-.015.027.176.015.089.091-.015.013.088.09-.014.014.087.016.088.088-.015.015.087.087-.014.015.088.178-.03-.016-.087-.014-.088.091-.015.012.088.088-.015.014.088.088-.015-.013-.088-.014-.088.087-.015.014.088.087-.015.016.088-.087.015.016.088.014.088.016.088.176-.029.086-.015.016.089-.087.014.014.089-.089.014.015.089.089-.015.016.087.086-.014-.013-.089.088-.014.087-.015-.015-.087.088-.015.089-.015.014.088.016.089.015.087-.176.03-.089.015.016.087.089-.014.014.088.015.088-.087.015.014.088.088-.014.015.088.015.088-.087.015.014.088.015.088.017.088.086-.015.015.089.088-.015.017.087.086-.013.016.086.015.09.088-.015.016.087.014.089.09-.015.013.088.017.087.087-.015.015.089.015.088.014.088.089-.015.014.088.088-.015.018.087.013.089.089-.014.015.087.015.088.089-.015.014.088.015.088.088-.014.015.087.014.088.088-.015.016.088.015.088.089-.015.014.088.015.088.088-.015.015.088.016.087.087-.013.016.087.088-.014.015.088.088-.015.013.088.091-.015.013.089.017.087.09-.015.014.089.088-.015.014.088.015.088.089-.015.015.088.088-.015.014.088.089-.015.016.088.014.089.09-.015.015.088.015.088.087-.015.015.089.014.088.09-.015.014.087.088-.016.016.089.354-.059-.016-.089.088-.014-.015-.088.089-.014-.016-.088.088-.016-.014-.088.087-.015-.014-.086-.016-.09-.028-.176.089-.015-.016-.087-.013-.089.087-.014-.015-.087-.016-.088-.029-.177.088-.015-.015-.088-.014-.088-.014-.089.087-.015-.015-.088-.015-.087-.015-.089.089-.015-.015-.088-.028-.177-.016-.088.089-.015-.015-.088-.014-.088.086-.014-.014-.089-.015-.087-.016-.088.087-.014-.015-.088-.016-.088-.014-.089-.014-.088.088-.014-.014-.088-.029-.177.088-.015-.014-.088-.016-.088.089-.015-.014-.087-.017-.088.089-.015-.015-.089-.013-.089.086-.014-.016-.088-.015-.087.089-.014-.015-.089.088-.014-.013-.088-.017-.088-.014-.087.09-.015-.016-.089-.016-.087-.014-.089.088-.015-.015-.088-.016-.088.089-.015-.016-.087-.015-.088.088-.015-.014-.089-.015-.088.089-.015-.014-.088-.016-.088.088-.015-.015-.088.088-.015-.016-.088.088-.014-.014-.089-.016-.088.09-.014-.016-.089.089-.015-.015-.087.087-.015-.013-.088.089-.015-.017-.089.089-.015-.016-.087-.015-.089.089-.014-.014-.088-.015-.088-.015-.088-.09.015.015.088-.087.015-.09.015-.086.015-.014-.075.158-.141.002.009.014.088.088-.014-.025-.153.158-.142.015-.182.044-.009.015.089.089-.016.09-.015.028.177.177-.029-.015-.088.087-.015-.014-.087.088-.015.09-.016-.017-.088.087-.014-.014-.088.088-.014-.016-.089.09-.014-.015-.088.089-.015-.016-.088.088-.015-.015-.088-.015-.088.087-.014-.014-.09-.016-.088-.015-.087-.015-.089-.015-.088-.086.015-.016-.089-.089.015-.015-.088-.087.014-.09.015-.087.014-.088.015-.014-.088-.089.015-.088.014.013.089-.175.029-.178.029-.087.015-.176.029-.089.015-.089.015.016.088-.089.014-.088.015.015.088-.089.015-.088.015-.089.015-.087.014-.088.015-.089.015.016.088-.177.029.016.089.015.088-.09.015.015.089.015.088.014.088-.087.015-.028-.177-.015-.087-.016-.089-.09.015-.013-.089-.089.015-.09.016-.174.028-.089.015-.09.016-.086.013.015.089-.089.014-.088.015-.014-.088-.091.015-.088.014-.088.015-.087.014-.016-.087-.352.058-.178.03-.088.015-.176.029-.178.028-.085.015-.016-.088-.088.015-.09.015-.089.016-.087.014-.015-.088-.176.029-.352.058-.091.016-.015-.088-.088.016-.088.014-.353.058-.177.029-.176.03-.088.015-.178.03-.176.029-.088.015.014.088-.087.014-.088.015-.09.015-.086.014-.089.015-.089.015.015.089-.089.015-.088.015-.176.029-.177.029-.088.015-.087.015.014.088-.089.015-.088.015.014.087-.088.015.015.089.015.088.016.088.014.089.088-.014.015.087.011.095zm6.334-1.143l-.015-.087-.015-.089-.014-.088.089-.015-.016-.087.089-.015.088-.015-.016-.088.087-.015.017.089.008.045-.257.086-.045.279z"/><path fill="#5EBCA9" d="M91.996 20.25l.09-.016.015.089-.089.014.016.088-.089.015-.016-.087-.014-.088-.016-.089.089-.015.014.089z"/><path fill="#A8D8D0" d="M.809 9.003l.071.05-.052.071-.049.071-.05.072-.051.071-.051.071.073.051-.051.071-.05.072-.047.069.07.05-.05.071-.051.072.072.05-.05.072-.049.07.072.051-.103.14-.049.072.072.051-.051.07.071.052-.05.07-.049.072.07.049-.049.071.07.05-.051.071.144.1.051-.07.049-.071.074.052-.053.069.072.049-.051.071.07.05.052-.07.05-.071.072.05-.053.071.071.049-.05.072-.07-.05-.049.072-.05.071-.051.072.143.099.07.049-.051.072-.069-.05-.051.071-.071-.05-.052.071.073.049-.048.072.068.048.052-.07.069.05.071.049.05-.071.071.049.071.05-.049.071-.045.072-.051.07-.142-.098-.071-.05-.049.071.071.05-.051.071-.05.071-.07-.049-.05.071.071.05-.052.071-.05.071-.068-.049-.051.07-.05.072-.05.072.07.048-.05.073.07.049-.047.072.068.049-.049.071-.051.073.071.049-.049.071-.051.071.073.05-.052.07-.049.072.071.049-.05.073-.052.071-.049.07.071.051-.052.07.072.05-.049.072-.05.07.071.05-.051.071-.049.072.071.05-.051.071-.049.071.07.05-.05.071-.051.071.071.05-.049.072-.05.071.07.05-.05.07-.05.071.07.049-.049.071-.048.071.068.05-.049.071.07.05-.05.071.071.049-.052.07.073.051-.037.075-.049.072.072.05-.051.072.07.049-.05.071-.05.072.071.049-.049.072.07.049-.05.071.071.05-.05.071-.05.071.072.051-.051.07-.048.071.069.049-.05.072-.051.071.072.05-.051.07.071.05-.049.072.285.2.05-.072.069.049.052-.071.07.05.051-.071.07.049.051-.071.07.048.049-.069.051-.072.1-.142.072.05.048-.072.053-.07.07.05.051-.07.047-.072.101-.143.071.049.051-.07.05-.07.05-.072.07.049.051-.071.049-.071.051-.071.071.05.051-.071.101-.142.049-.072.071.051.051-.072.049-.071.071.05.049-.072.051-.071.051-.071.068.049.051-.071.049-.072.052-.071.051-.071.07.05.049-.07.101-.143.072.049.05-.07.05-.071.071.049.051-.07.049-.071.07.05.051-.072.052-.07.069.049.049-.072.051-.07.069.05.053-.072.069.05.051-.071.049-.071.051-.071.072.05.05-.072.048-.072.053-.07.069.049.052-.071.048-.072.072.051.048-.071.05-.072.071.051.05-.071.052-.071.071.05.05-.071.049-.072.071.05.051-.071.07.05.05-.072.07.05.052-.071.048-.072.073.052.049-.072.073.05.048-.072.071.05.051-.071.072.051.049-.073.071.05.05-.071.049-.072.073.051.05-.071.049-.071.051-.071-.073-.051-.049.071-.07-.049-.073-.05-.07-.049.043-.061.206.01-.006.008-.051.071.07.049.087-.124.206.01.135-.117.036.024-.05.071.072.051.07.05-.099.143.143.099.05-.071.07.049.049-.07.072.05.072.05.05-.073.069.05.05-.07.071.049.05-.072.072.051.05-.071.071.05.049-.071.072.05.05-.071.05-.071.068.049.053-.071.048-.072.05-.071.051-.071.049-.071-.069-.048.051-.072-.073-.05.051-.071-.07-.05-.073-.051-.068-.048-.072-.049.052-.071-.072-.05-.071-.051-.052.071-.141-.099-.144-.101-.071-.049-.141-.1-.073-.05-.07-.05-.05.071-.071-.05-.072-.05-.049.071-.072-.049-.071-.05-.071-.051-.07-.049-.071-.049-.072-.051-.048.072-.144-.1-.049.072-.05.071-.072-.05-.051.071-.05.071-.051.07-.069-.048.101-.143.049-.072.049-.071-.071-.051.052-.071-.072-.05-.072-.05-.14-.1-.072-.05-.072-.05-.069-.05-.05.072-.073-.05-.071-.051.051-.07-.072-.051-.069-.049-.073-.051-.07-.049.05-.071-.284-.199-.144-.101-.07-.049-.145-.1-.142-.101-.068-.048.049-.073-.071-.049-.071-.051-.073-.049-.07-.049.05-.072-.141-.1-.285-.2-.08-.049.05-.072-.072-.049-.071-.05-.285-.199-.144-.1-.141-.1-.07-.049-.143-.1-.142-.101-.07-.05-.052.071-.07-.049-.072-.05-.072-.05-.071-.05-.07-.05-.071-.049-.05.072-.073-.052-.07-.049-.143-.1-.142-.1-.071-.049-.071-.049-.05.07-.072-.05-.073-.049-.048.07-.071-.05-.051.072-.05.072-.05.071-.049.071.07.05-.051.07-.046.072zm5.574 3.728l.029-.082.032-.082.032-.081.08.031.032-.08.081.03.081.031.03-.082.081.031-.03.083-.017.042-.259-.054-.172.213z"/><path fill="#5EBCA9" d="M7.188 13.785l.082.032-.03.082-.082-.032-.031.081-.081-.031.031-.081.03-.082.031-.081.082.031-.032.081zm79.136 9.398l-.015-.09.089-.014.015.09z"/></g><path d="M27.413 17.625l-.032-.081.082-.033.065.161-.08.033-.035-.08zm1.678 8.125l-.043-.076-.044-.073-.072.042-.047-.075-.046-.076-.044-.073.074-.045-.176-.299-.088-.15-.046-.075.075-.044-.043-.073-.044-.076-.045-.075-.046-.075-.044-.075.074-.044-.043-.074-.046-.075.075-.044-.045-.075-.088-.15.149-.089.043.075.045.075-.074.042.045.076.076-.045.075-.042-.046-.076-.046-.075.077-.044-.046-.075-.074.043-.044-.073.074-.045-.043-.075.074-.046.073-.042-.045-.075-.043-.076.074-.043-.044-.075-.074.044-.045-.076-.073.046-.076.044-.074.043-.074.045-.045-.075-.074.043-.045-.075-.076.045-.043-.074-.091-.149-.045-.076.078-.044-.047-.075-.086-.15-.09-.148-.089-.151.075-.042-.046-.075-.044-.076-.043-.074-.045-.076-.089-.149-.044-.076-.045-.074.074-.043-.043-.077-.178-.299-.09-.148-.045-.076-.09-.148-.042-.074-.091-.151-.089-.149.077-.045-.045-.074-.044-.075-.044-.075-.045-.075.073-.043-.042-.074-.043-.077-.047-.073.075-.045-.046-.074-.044-.074.073-.044-.042-.076.075-.044-.045-.075.074-.044.049-.029-.03-.082-.061.035-.047-.073.074-.044-.042-.075-.046-.075.015-.011-.109-.239-.038.026-.074.044.044.075-.075.046-.045-.077-.074.046-.045-.075-.044-.075.074-.044-.044-.076-.044-.075-.043-.075-.047-.074.076-.045-.044-.076.073-.042-.044-.075.076-.045.073-.043.149-.089.148-.089.076-.043.047.074.072-.045.074-.043.076-.045.074-.044.044.075.075-.044.074-.045.076-.045.043.075.045.074.075-.043.074-.045.074-.043.046.075.074-.044.075-.045.044.076.074-.044.074-.043.048.072.041.076.075-.045-.046-.073.077-.045.045.075.148-.089.074-.044.044.075.076-.045.072-.043.077-.044.076-.046.043.076.076-.047.074-.042.074-.045.044.075.075-.044.074-.044.046.073.073-.043.046.076.074-.045.044.076.075-.045.148-.089.044.075.076-.044.074-.044.044.074.077-.045.072-.043.045.074.075-.044.074-.043.076-.045.044.075.073-.043.045.075.075-.046.074-.044.045.076.074-.045.045.074.075-.044.045.075.074-.043.044.073.074-.044.045.076.076-.046.073-.044.043.076.078-.046.073-.042.045.073.075-.044.043.074.074-.044.045.075.074-.043.046.075.072-.045.075-.044.045.075.074-.044.044.075.075-.044.044.075.076-.045.075-.044.045.074.074-.043.073-.043.044.074.076-.044.046.074.073-.045.045.075.075-.043.045.074.074-.046.045.077.072-.045.076-.044.045.075.075-.045.075-.043.042.073.076-.043.046.075.074-.043.043.074.075-.045.045.075.074-.044.045.074.045.075.043.076-.074.044.045.073-.074.045.043.075-.073.044.042.075-.072.044.043.075.045.075-.148.088-.077.046-.075.044-.074.044.045.075-.076.044-.075.044-.071.043.042.076-.074.044-.074.043.046.076-.076.045-.076.044-.077.045-.073.043.045.075-.075.045-.073.043-.076.045.048.074-.078.046-.075.043.046.074-.075.044.044.075-.075.044-.074.044.046.076-.077.044-.073.045-.075.042.045.075-.075.045-.15.089.046.074-.076.045-.073.044.042.075-.074.046-.074.042-.075.045.046.075-.075.043-.075.046.044.074-.073.046.043.073-.073.044-.075.044-.078.046.047.074-.075.045-.15.109.121.01-.075.043-.076.045.044.074-.074.045.043.075-.073.043-.073.043.044.076-.074.044-.076.044.045.076-.076.043-.073.043.045.075-.074.044-.075.045.044.074-.076.045.043.075-.073.043-.075.045.045.076-.072.043.041.075-.074.044-.072.043.042.076-.074.044-.074.045.043.074-.074.044-.074.045.045.075-.075.044.045.075-.075.043-.076.045.045.074-.073.044.044.075-.074.043-.076.045.046.075-.077.044.046.075-.076.045.044.075-.074.044-.073.045.042.074-.072.044-.075.045.046.073-.077.047-.073.042.045.075-.075.045.043.074-.075.045-.074.045.044.074-.077.046-.071.042.044.074-.075.046-.074.045-.075.043.045.075-.076.045-.075.045.045.073-.075.045-.045-.075-.073.044-.075.045-.045-.076-.074.045-.047-.075zm-.412-3.753l-.032-.081.08-.034.081-.033.08-.034.033.08-.08.035.032.08-.079.033.035.08-.083.035-.032-.081-.035-.08zm.103.24l-.079.033-.036-.08.079-.033.036.08z" fill-rule="evenodd" clip-rule="evenodd" fill="#CBCB30"/></svg>