<?xml version="1.0" encoding="utf-8"?>
<!-- Generator: Adobe Illustrator 15.1.0, SVG Export Plug-In . SVG Version: 6.00 Build 0)  -->
<!DOCTYPE svg PUBLIC "-//W3C//DTD SVG 1.1//EN" "http://www.w3.org/Graphics/SVG/1.1/DTD/svg11.dtd">
<svg version="1.1" xmlns="http://www.w3.org/2000/svg" xmlns:xlink="http://www.w3.org/1999/xlink" x="0px" y="0px"
	 width="61.167px" height="84.73px" viewBox="0 0 61.167 84.73" enable-background="new 0 0 61.167 84.73" xml:space="preserve">
<g id="レイヤー_1" display="none">
	<rect x="-123.833" y="-20.5" display="inline" fill="#393F3D" stroke="#231815" stroke-miterlimit="10" width="685" height="395"/>
</g>
<g id="レイヤー_3">
	<path opacity="0.43" fill="#FFFFFF" d="M27.417,2.125c0,0,0.125,6.5,0,8.625c-0.107,1.826,0.224,7.703,0.375,9.375
		c0.125,1.375,0.25,2.5,0.25,2.5l0.5,0.5h1c0,0-0.375-5.75-0.5-8.375s0-7.125,0-8.375s0-5,0-5L28.292,0l-0.625,0.625L27.417,2.125z"
		/>
	<polygon opacity="0.58" fill="#FFFFFF" points="19.5,37.167 17.833,44.667 27.167,45.667 27.833,38.333 	"/>
	<path opacity="0.5" fill="#FFFFFF" d="M39.333,45.833l7.833-1.667L48.5,50v3.5l-9.167,1.333
		C39.333,54.833,39.5,45.333,39.333,45.833z"/>
	<polygon opacity="0.5" fill="#FFFFFF" points="28,64.5 28.667,73.833 38.5,73.667 38.667,64.333 	"/>
	<path opacity="0.5" fill="#FFFFFF" d="M17,54.667c0,0,1.333,9.5,0.833,9.5S9,62.667,9,62.667l-0.333-8.833L17,54.667z"/>
	<polygon opacity="0.5" fill="#FFFFFF" points="9,63.5 10.5,72.5 5.167,71.5 1,62.667 1.833,61.833 	"/>
	<polygon opacity="0.5" fill="#FFFFFF" points="49.667,62 54.167,61.167 56.833,60.667 56.833,65.167 56,70.333 49,72 49,67 	"/>
	<polygon opacity="0.5" fill="#FFFFFF" points="45,27.833 46.667,35.5 52.167,33 48.667,29.167 	"/>
	<polygon opacity="0.9" fill="#FFFFFF" points="39.333,54.833 38.667,64.333 46.167,63 49.333,62.667 48.667,54.333 	"/>
	<polygon opacity="0.9" fill="#FFFFFF" points="27.167,45.667 27.667,55.333 39.333,54.833 38.833,45.833 	"/>
	<polygon opacity="0.9" fill="#FFFFFF" points="17.833,44.667 17,54.667 8.667,53.833 9.167,48.167 9.833,44 	"/>
	<polygon opacity="0.9" fill="#FFFFFF" points="2.292,42.125 6.667,43 9.833,44 12.292,35.75 7.333,34.667 4.417,37.875 	"/>
	<polygon opacity="0.9" fill="#FFFFFF" points="28.5,31.167 27.833,38.333 33.667,37.667 38.333,36.833 37.333,30.5 	"/>
	<polygon opacity="0.9" fill="#FFFFFF" points="36.833,24.833 38.333,30.333 43.5,28.5 45.667,28.167 41.5,26.167 	"/>
	<polygon opacity="0.9" fill="#FFFFFF" points="17.833,64.167 18.667,71 19.5,73.667 27.833,74.167 27.333,64.5 	"/>
	<polygon opacity="0.25" fill="#FFFFFF" points="17.333,55.333 17,64 27.333,64.5 27.167,56 26.5,55.167 21.833,55 17,54.667 	"/>
	<polygon opacity="0.25" fill="#FFFFFF" points="47.667,43.833 48.5,54 54.5,52 56,51 54.333,42 	"/>
	<polygon opacity="0.25" fill="#FFFFFF" points="12.167,36.333 17.5,37.5 19.5,37.167 17.167,45.167 9.833,44 	"/>
	<polygon opacity="0.24" fill="#FFFFFF" points="38.833,37.5 39.333,45.833 47.167,44.167 46.667,35.5 	"/>
	<polygon opacity="0.25" fill="#FFFFFF" points="27.833,74.167 30.667,84.333 37.5,83.333 38.5,73.667 	"/>
	<polygon opacity="0.25" fill="#FFFFFF" points="10.5,72.5 19.5,73.667 22.417,83.75 18.667,82.333 14.417,80.125 12.167,78.167 	
		"/>
	<polygon opacity="0.25" fill="#FFFFFF" points="56,51 56.833,60.667 61,58.167 61,55.333 61.167,50.333 60.667,49.167 	"/>
	<polygon opacity="0.68" fill="#FFFFFF" points="14.333,29.833 11.833,35.333 14.833,36.833 19.5,37.167 20.833,30.833 15.833,30 	
		"/>
	<polygon fill="#FFFFFF" points="46.667,35.5 47.667,43.833 52.833,42 54.5,41 53.167,34.167 52.167,33 49.833,34.667 	"/>
	<polygon fill="#FFFFFF" points="39.333,73.667 44.833,73 48.333,72.667 46.667,80 43,83.167 37.5,83.333 38.333,79 	"/>
	<polyline fill="#FFFFFF" points="0.5,51.667 6,53.167 8.667,53.833 8.667,59.667 9,63.5 5.667,62.833 0.5,62 0,56.333 	"/>
	<polygon fill="#FFFFFF" points="20.833,30.833 27.667,31.167 28.333,27 29.167,23.667 24.5,24.667 22.667,25.5 	"/>
	<path opacity="0.54" fill="#FFFFFF" d="M2.292,42.125c-0.75,1.25-2.25,7.5-2.25,9.5c2.75,1.125,8.75,1.5,8.75,1.5L9.833,44
		L2.292,42.125z"/>
	<path opacity="0.26" fill="#FFFFFF" d="M29.167,23.667c1.375-0.292,3.125-0.417,5.125-0.042s2.542,1.208,2.542,1.208l0.5,5.667
		l-5.417,0.625l-4.25,0.042L29.167,23.667z"/>
	<path opacity="0.27" fill="#FFFFFF" d="M48.333,72.667c0,0-1.292,6.708-1.667,7.333c3.5-2.5,8.375-6.5,9.5-9.125
		c-1.125-0.5-1.75-0.25-1.75-0.25L48.333,72.667z"/>
	<path opacity="0.09" fill="#FFFFFF" d="M19.292,74.125c0,0,1.5,4,1.75,5.375s1.375,4.25,1.375,4.25s1.5,0.5,3.375,0.875
		s4.125-0.375,4.125-0.375l-2.083-10.083l-5.667,0.208L19.292,74.125z"/>
	<path opacity="0.14" fill="#FFFFFF" d="M54.5,41l3.167-1.375c1.375,2.375,3.25,8.125,3,9.125c-1.5,1-4.125,2.25-4.125,2.25L54.5,41
		z"/>
	<path opacity="0.07" fill="#FFFFFF" d="M11.792,77.5c-0.625-2-1.25-4.5-1.25-4.5l-5.375-1.5C5.167,71.5,9.417,76.75,11.792,77.5z"
		/>
	<path opacity="0.09" fill="#FFFFFF" d="M13.542,29.125c0,0,4.625,2,6.625,2c1.25-3.125,3.25-6.875,3.25-6.875
		s-3.125,0.75-5.625,1.875S13.542,29.125,13.542,29.125z"/>
</g>
<g id="レイヤー_2" display="none">
	<g display="inline">
		<path fill="#FFFFFF" d="M61.765,54.175c-0.004,4.067-0.632,8.211-2.166,12.045c-1.486,3.862-4.025,7.253-7.013,10.033
			c-3.004,2.775-6.344,5.146-10.043,6.99c-1.857,0.892-3.808,1.652-5.839,2.122c-2.029,0.482-4.121,0.682-6.205,0.683
			c-4.174-0.009-8.328-0.967-12.106-2.654c-3.789-1.682-7.225-4.073-10.143-6.979c-5.826-5.831-9.282-13.967-9.269-22.26
			c-0.019-4.103,0.775-8.253,2.347-12.072c1.566-3.826,3.898-7.337,6.813-10.275c5.812-5.921,14.055-9.327,22.371-9.289
			c4.116-0.002,8.28,0.812,12.102,2.402c3.83,1.585,7.337,3.936,10.266,6.866c2.926,2.929,5.294,6.432,6.84,10.276
			c0.78,1.917,1.369,3.912,1.756,5.942c0.182,1.017,0.366,2.038,0.392,3.072c0.011,1.037-0.104,2.067-0.103,3.089V54.175z
			 M60.568,54.167c0-0.986-0.212-1.963-0.396-2.924c-0.169-0.963-0.278-1.93-0.486-2.883c-0.392-1.907-0.972-3.774-1.73-5.565
			c-1.525-3.575-3.713-6.87-6.466-9.617c-5.487-5.53-13.188-8.737-21.002-8.697c-3.864-0.001-7.767,0.76-11.351,2.25
			c-3.591,1.488-6.881,3.689-9.648,6.425C3.93,38.624,0.677,46.333,0.685,54.177C0.667,58.062,1.416,61.985,2.9,65.598
			c1.47,3.625,3.71,6.929,6.479,9.689c2.758,2.774,6.12,4.938,9.751,6.329c3.637,1.395,7.514,2.015,11.369,2.003
			c1.93-0.001,3.854-0.19,5.763-0.488c1.907-0.309,3.818-0.718,5.669-1.364c3.721-1.229,7.178-3.414,9.851-6.317
			c2.691-2.896,4.708-6.303,6.294-9.86c1.548-3.582,2.498-7.467,2.491-11.43V54.167z"/>
	</g>
	<path display="inline" fill="none" stroke="#FFFFFF" stroke-miterlimit="10" d="M13.542,29.375c3.25,2.375,25.5,3.125,32.5-1.625"
		/>
	<path display="inline" fill="none" stroke="#FFFFFF" stroke-miterlimit="10" d="M7.542,34.5c4.25,2.875,32,6.5,44.875-1.5"/>
	<path display="inline" fill="none" stroke="#FFFFFF" stroke-miterlimit="10" d="M3.167,41.75c4.75,2.75,38.125,9.125,53.75-1.875"
		/>
	<path display="inline" fill="none" stroke="#FFFFFF" stroke-miterlimit="10" d="M0.042,52c4.75,1.625,45.125,7.75,60.25-2.875"/>
	<path display="inline" fill="none" stroke="#FFFFFF" stroke-miterlimit="10" d="M1.667,61.75C6.292,64,50.792,67.375,60.917,58"/>
	<path display="inline" fill="none" stroke="#FFFFFF" stroke-miterlimit="10" d="M5.167,71.25
		c9.125,3.375,40.625,5.125,51.875-2.125"/>
	<g display="inline">
		<path fill="#FFFFFF" d="M29.632,24.058c-0.29,1.086-0.375,2.421-0.482,3.663l-0.242,3.807l-0.329,7.644
			c-0.16,5.101-0.316,10.205-0.337,15.31c-0.011,2.552,0.008,5.104,0.063,7.653c0.036,2.55,0.108,5.099,0.24,7.642
			c0.134,2.542,0.33,5.08,0.623,7.596c0.153,1.257,0.339,2.508,0.6,3.734c0.273,1.21,0.575,2.456,1.152,3.457l-0.842,0.54
			c-0.764-1.192-1.131-2.461-1.469-3.725c-0.323-1.267-0.564-2.541-0.771-3.818c-0.419-2.553-0.663-5.119-0.863-7.683
			c-0.402-5.129-0.549-10.265-0.558-15.397c-0.015-5.132,0.052-10.265,0.346-15.391c0.121-2.564,0.318-5.125,0.586-7.684
			c0.13-1.28,0.271-2.56,0.474-3.837c0.225-1.288,0.352-2.532,0.877-3.877L29.632,24.058z"/>
	</g>
	<g display="inline">
		<path fill="#FFFFFF" d="M24.154,24.97c-1.525,1.782-2.305,4.17-3.026,6.489c-0.675,2.355-1.2,4.768-1.647,7.197
			c-0.443,2.432-0.736,4.889-1.183,7.33c-0.408,2.441-0.82,4.917-0.782,7.373c-0.004,4.953,0.654,9.905,1.332,14.798
			c0.37,2.446,0.772,4.886,1.348,7.279c0.557,2.392,1.241,4.766,2.284,6.948l-0.877,0.48c-1.323-2.217-2.12-4.653-2.785-7.085
			c-0.629-2.447-1.109-4.921-1.45-7.411c-0.7-4.981-0.845-9.996-0.872-15.017c0.011-1.262,0.101-2.526,0.147-3.776
			c0.05-1.254,0.1-2.509,0.184-3.762c0.132-2.512,0.567-4.991,1.039-7.461c0.478-2.469,1.051-4.93,1.874-7.333
			c0.411-1.201,0.858-2.397,1.446-3.544c0.583-1.136,1.268-2.288,2.243-3.196L24.154,24.97z"/>
	</g>
	<g display="inline">
		<path fill="#FFFFFF" d="M14.871,28.708c-1.756,3.938-2.987,8.084-3.952,12.281c-0.922,4.205-1.582,8.484-1.739,12.765
			c-0.117,4.271,0.294,8.582,0.991,12.827c0.715,4.241,1.684,8.463,3.207,12.476l-0.923,0.386
			c-1.787-4.034-2.915-8.305-3.706-12.616c-0.756-4.318-1.217-8.704-1.046-13.126c0.188-4.408,0.874-8.757,1.909-13.017
			c1.032-4.257,2.437-8.443,4.351-12.392L14.871,28.708z"/>
	</g>
	<g display="inline">
		<path fill="#FFFFFF" d="M37.006,24.191c0.488,1.253,0.67,2.475,0.897,3.707c0.208,1.229,0.38,2.459,0.537,3.69
			c0.321,2.46,0.542,4.927,0.758,7.393c0.414,4.93,0.748,9.877,0.786,14.842c0.078,4.949,0.04,9.898-0.158,14.849
			c-0.084,2.476-0.259,4.951-0.482,7.425c-0.235,2.475-0.546,4.945-1.194,7.403l-0.969-0.247c0.509-2.35,0.642-4.82,0.821-7.261
			c0.161-2.45,0.22-4.91,0.303-7.37c0.125-4.922,0.149-9.853,0.126-14.781c-0.016-4.915-0.319-9.833-0.622-14.753
			c-0.162-2.458-0.37-4.913-0.595-7.362c-0.118-1.224-0.25-2.445-0.416-3.657c-0.177-1.198-0.342-2.445-0.724-3.508L37.006,24.191z"
			/>
	</g>
	<g display="inline">
		<path fill="#FFFFFF" d="M45.145,26.478c0.737,2.19,1.172,4.378,1.624,6.587c0.445,2.205,0.783,4.426,1.124,6.646
			c0.629,4.449,1.111,8.917,1.441,13.401c0.332,4.484,0.462,8.989,0.28,13.499c-0.092,2.254-0.283,4.511-0.648,6.751
			c-0.372,2.235-0.88,4.478-1.841,6.59l-0.913-0.407c0.842-1.996,1.28-4.175,1.579-6.357c0.287-2.189,0.423-4.405,0.488-6.624
			c0.117-4.441-0.113-8.896-0.444-13.34c-0.345-4.444-0.863-8.878-1.488-13.294c-0.289-2.212-0.646-4.414-0.98-6.618
			c-0.357-2.191-0.692-4.424-1.177-6.542L45.145,26.478z"/>
	</g>
	<g display="inline">
		<path fill="#FFFFFF" d="M52.375,31.675c1.245,3.388,2,6.746,2.764,10.177c0.733,3.421,1.331,6.874,1.715,10.357
			c0.387,3.482,0.598,6.995,0.447,10.517c-0.167,3.505-0.653,7.086-2.181,10.361l-0.905-0.425c1.394-3.084,1.83-6.561,1.985-9.983
			c0.133-3.441-0.089-6.903-0.487-10.34c-0.41-3.437-0.975-6.86-1.675-10.256c-0.351-1.698-0.737-3.389-1.161-5.069
			c-0.433-1.659-0.851-3.401-1.418-4.94L52.375,31.675z"/>
	</g>
	<g display="inline">
		<path fill="#FFFFFF" d="M30.347,3.333c-0.135,3.361-0.16,6.722-0.176,10.083l0.03,5.042c0.028,1.68,0.073,3.361,0.146,5.042
			h-1.694c0.073-1.681,0.118-3.361,0.146-5.042l0.03-5.042c-0.017-3.361-0.042-6.723-0.176-10.083H30.347z"/>
	</g>
</g>
</svg>
