<svg xmlns="http://www.w3.org/2000/svg" width="61.167" height="84.73" viewBox="0 0 61.167 84.73"><g fill="#fff"><path opacity=".43" d="M27.417 2.125s.125 6.5 0 8.625c-.107 1.826.224 7.703.375 9.375.125 1.375.25 2.5.25 2.5l.5.5h1s-.375-5.75-.5-8.375v-13.375l-.75-1.375-.625.625-.25 1.5z"/><path opacity=".58" d="M19.5 37.167l-1.667 7.5 9.334 1 .666-7.334z"/><path opacity=".5" d="M39.333 45.833l7.833-1.667 1.334 5.834v3.5l-9.167 1.333s.167-9.5 0-9zM28 64.5l.667 9.333 9.833-.166.167-9.334zM17 54.667s1.333 9.5.833 9.5l-8.833-1.5-.333-8.833 8.333.833zM9 63.5l1.5 9-5.333-1-4.167-8.833.833-.834zM49.667 62l4.5-.833 2.666-.5v4.5l-.833 5.166-7 1.667v-5zM45 27.833l1.667 7.667 5.5-2.5-3.5-3.833z"/><path opacity=".9" d="M39.333 54.833l-.666 9.5 7.5-1.333 3.166-.333-.666-8.334zM27.167 45.667l.5 9.666 11.666-.5-.5-9zM17.833 44.667l-.833 10-8.333-.834.5-5.666.666-4.167zM2.292 42.125l4.375.875 3.166 1 2.459-8.25-4.959-1.083-2.916 3.208zM28.5 31.167l-.667 7.166 5.834-.666 4.666-.834-1-6.333zM36.833 24.833l1.5 5.5 5.167-1.833 2.167-.333-4.167-2zM17.833 64.167l.834 6.833.833 2.667 8.333.5-.5-9.667z"/><path opacity=".25" d="M17.333 55.333l-.333 8.667 10.333.5-.166-8.5-.667-.833-4.667-.167-4.833-.333zM47.667 43.833l.833 10.167 6-2 1.5-1-1.667-9zM12.167 36.333l5.333 1.167 2-.333-2.333 8-7.334-1.167z"/><path opacity=".24" d="M38.833 37.5l.5 8.333 7.834-1.666-.5-8.667z"/><path opacity=".25" d="M27.833 74.167l2.834 10.166 6.833-1 1-9.666zM10.5 72.5l9 1.167 2.917 10.083-3.75-1.417-4.25-2.208-2.25-1.958zM56 51l.833 9.667 4.167-2.5v-2.834l.167-5-.5-1.166z"/><path opacity=".68" d="M14.333 29.833l-2.5 5.5 3 1.5 4.667.334 1.333-6.334-5-.833z"/><path d="M46.667 35.5l1 8.333 5.166-1.833 1.667-1-1.333-6.833-1-1.167-2.334 1.667zM39.333 73.667l5.5-.667 3.5-.333-1.666 7.333-3.667 3.167-5.5.166.833-4.333zM.5 51.667l5.5 1.5 2.667.666v5.834l.333 3.833-3.333-.667-5.167-.833-.5-5.667"/><path d="M20.833 30.833l6.834.334.666-4.167.834-3.333-4.667 1-1.833.833z"/><path opacity=".54" d="M2.292 42.125c-.75 1.25-2.25 7.5-2.25 9.5 2.75 1.125 8.75 1.5 8.75 1.5l1.041-9.125-7.541-1.875z"/><path opacity=".26" d="M29.167 23.667c1.375-.292 3.125-.417 5.125-.042l2.542 1.208.5 5.667-5.417.625-4.25.042 1.5-7.5z"/><path opacity=".27" d="M48.333 72.667s-1.292 6.708-1.667 7.333c3.5-2.5 8.375-6.5 9.5-9.125-1.125-.5-1.75-.25-1.75-.25l-6.083 2.042z"/><path opacity=".09" d="M19.292 74.125s1.5 4 1.75 5.375l1.375 4.25s1.5.5 3.375.875l4.125-.375-2.083-10.083-5.667.208-2.875-.25z"/><path opacity=".14" d="M54.5 41l3.167-1.375c1.375 2.375 3.25 8.125 3 9.125-1.5 1-4.125 2.25-4.125 2.25l-2.042-10z"/><path opacity=".07" d="M11.792 77.5c-.625-2-1.25-4.5-1.25-4.5l-5.375-1.5s4.25 5.25 6.625 6z"/><path opacity=".09" d="M13.542 29.125s4.625 2 6.625 2c1.25-3.125 3.25-6.875 3.25-6.875s-3.125.75-5.625 1.875l-4.25 3z"/></g></svg>